g mesh_Teleporter_Burst_A
v 6.152426E-08 -0.4641535 0.2000016
v 0.09055191 -0.4552363 -0.1999983
v 6.152426E-08 -0.4641549 -0.1999983
v 0.09055191 -0.4552349 0.2000016
v 0.1776239 -0.4288233 -0.1999985
v 0.1776239 -0.4288219 0.2000015
v 0.2578699 -0.3859309 -0.1999986
v 0.2578699 -0.3859295 0.2000014
v 0.3282061 -0.3282075 -0.1999988
v 0.3282061 -0.3282061 0.2000012
v 0.3859296 -0.2578713 -0.199999
v 0.3859296 -0.2578698 0.2000009
v 0.428822 -0.1776253 -0.1999993
v 0.428822 -0.1776239 0.2000006
v 0.4552349 -0.09055328 -0.1999996
v 0.4552349 -0.09055188 0.2000003
v 0.4641535 -1.460314E-06 -0.2
v 0.4641535 -4.646017E-08 0.2
v 0.455235 0.09055036 -0.2000003
v 0.455235 0.09055179 0.1999997
v 0.428822 0.1776223 -0.2000006
v 0.428822 0.1776238 0.1999994
v 0.3859296 0.2578684 -0.2000009
v 0.3859296 0.2578698 0.1999991
v 0.3282061 0.3282047 -0.2000012
v 0.3282061 0.3282061 0.1999988
v 0.2578699 0.3859281 -0.2000013
v 0.2578699 0.3859295 0.1999986
v 0.1776238 0.4288205 -0.2000015
v 0.1776238 0.4288219 0.1999985
v 0.0905518 0.4552335 -0.2000016
v 0.0905518 0.4552349 0.1999984
v -8.971614E-08 0.4641521 -0.2000017
v -8.971614E-08 0.4641535 0.1999984
v -0.09055197 0.4552334 -0.2000016
v -0.09055197 0.4552348 0.1999984
v -0.177624 0.4288204 -0.2000015
v -0.177624 0.4288218 0.1999985
v -0.25787 0.3859279 -0.2000013
v -0.25787 0.3859293 0.1999986
v -0.3282062 0.3282045 -0.2000011
v -0.3282062 0.3282059 0.1999988
v -0.3859296 0.2578682 -0.2000009
v -0.3859296 0.2578696 0.1999991
v -0.428822 0.1776221 -0.2000006
v -0.428822 0.1776235 0.1999994
v -0.4552349 0.09055004 -0.2000003
v -0.4552349 0.09055144 0.1999997
v -0.4641534 -1.877546E-06 -0.2
v -0.4641534 -4.596038E-07 0.2
v -0.4552347 -0.09055376 -0.1999996
v -0.4552347 -0.09055234 0.2000003
v -0.4288216 -0.1776257 -0.1999993
v -0.4288216 -0.1776243 0.2000006
v -0.3859291 -0.2578717 -0.199999
v -0.3859291 -0.2578703 0.2000009
v -0.3282056 -0.3282079 -0.1999988
v -0.3282056 -0.3282065 0.2000012
v -0.2578693 -0.3859312 -0.1999986
v -0.2578693 -0.3859299 0.2000014
v -0.1776232 -0.4288236 -0.1999985
v -0.1776232 -0.4288222 0.2000015
v -0.09055109 -0.4552364 -0.1999983
v -0.09055109 -0.455235 0.2000016
v 6.152426E-08 -0.4641549 -0.1999983
v 6.152426E-08 -0.4641535 0.2000016
vt 1 -5.960464E-08
vt 0.96875 1
vt 1 1
vt 0.96875 -5.960464E-08
vt 0.9375 1
vt 0.9375 -5.960464E-08
vt 0.90625 1
vt 0.90625 -5.960464E-08
vt 0.875 1
vt 0.875 0
vt 0.84375 1
vt 0.84375 0
vt 0.8125 1
vt 0.8125 0
vt 0.78125 1
vt 0.78125 0
vt 0.75 1
vt 0.75 0
vt 0.71875 1
vt 0.71875 0
vt 0.6875 1
vt 0.6875 0
vt 0.65625 1
vt 0.65625 0
vt 0.6250001 1
vt 0.625 0
vt 0.5937501 1
vt 0.59375 0
vt 0.5625001 1
vt 0.5625 0
vt 0.5312501 1
vt 0.53125 0
vt 0.5 1
vt 0.5 0
vt 0.46875 1
vt 0.46875 0
vt 0.4375 1
vt 0.4375 0
vt 0.40625 1
vt 0.40625 0
vt 0.375 1
vt 0.375 0
vt 0.34375 1
vt 0.34375 0
vt 0.3125 1
vt 0.3125 0
vt 0.28125 1
vt 0.28125 5.960464E-08
vt 0.2500001 1
vt 0.25 5.960464E-08
vt 0.21875 1
vt 0.21875 0
vt 0.1875 1
vt 0.1875 0
vt 0.15625 1
vt 0.15625 0
vt 0.125 1
vt 0.125 0
vt 0.09375 1
vt 0.09374997 0
vt 0.0625 1
vt 0.06249997 0
vt 0.03125 1
vt 0.03124997 0
vt 0 1
vt -5.960464E-08 0
vn 0 -1 0
vn 0.1950772 -0.9807879 0
vn 0 -1 0
vn 0.1950772 -0.9807879 0
vn 0.3826815 -0.9238803 0
vn 0.3826815 -0.9238803 0
vn 0.5555732 -0.8314676 0
vn 0.5555732 -0.8314676 0
vn 0.7071068 -0.7071068 0
vn 0.7071068 -0.7071068 0
vn 0.8314676 -0.5555732 0
vn 0.8314676 -0.5555732 0
vn 0.9238803 -0.3826815 0
vn 0.9238803 -0.3826815 0
vn 0.9807879 -0.1950772 0
vn 0.9807879 -0.1950772 0
vn 1 0 0
vn 1 0 0
vn 0.9807879 0.1950772 0
vn 0.9807879 0.1950772 0
vn 0.9238803 0.3826815 0
vn 0.9238803 0.3826815 0
vn 0.8314676 0.5555732 0
vn 0.8314676 0.5555732 0
vn 0.7071068 0.7071068 0
vn 0.7071068 0.7071068 0
vn 0.5555732 0.8314676 0
vn 0.5555732 0.8314676 0
vn 0.3826815 0.9238803 0
vn 0.3826815 0.9238803 0
vn 0.1950772 0.9807879 0
vn 0.1950772 0.9807879 0
vn 0 1 0
vn 0 1 0
vn -0.1950772 0.9807879 0
vn -0.1950772 0.9807879 0
vn -0.3826815 0.9238803 0
vn -0.3826815 0.9238803 0
vn -0.5555732 0.8314676 0
vn -0.5555732 0.8314676 0
vn -0.7071068 0.7071068 0
vn -0.7071068 0.7071068 0
vn -0.8314676 0.5555732 0
vn -0.8314676 0.5555732 0
vn -0.9238803 0.3826815 0
vn -0.9238803 0.3826815 0
vn -0.9807879 0.1950772 0
vn -0.9807879 0.1950772 0
vn -1 0 0
vn -1 0 0
vn -0.9807879 -0.1950772 0
vn -0.9807879 -0.1950772 0
vn -0.9238803 -0.3826815 0
vn -0.9238803 -0.3826815 0
vn -0.8314676 -0.5555732 0
vn -0.8314676 -0.5555732 0
vn -0.7071068 -0.7071068 0
vn -0.7071068 -0.7071068 0
vn -0.5555732 -0.8314676 0
vn -0.5555732 -0.8314676 0
vn -0.3826815 -0.9238803 0
vn -0.3826815 -0.9238803 0
vn -0.1950772 -0.9807879 0
vn -0.1950772 -0.9807879 0
vn 0 -1 0
vn 0 -1 0
g mesh_Teleporter_Burst_A_0
f 3/3/3 2/2/2 1/1/1
f 2/2/2 4/4/4 1/1/1
f 2/2/2 5/5/5 4/4/4
f 5/5/5 6/6/6 4/4/4
f 5/5/5 7/7/7 6/6/6
f 7/7/7 8/8/8 6/6/6
f 7/7/7 9/9/9 8/8/8
f 9/9/9 10/10/10 8/8/8
f 9/9/9 11/11/11 10/10/10
f 11/11/11 12/12/12 10/10/10
f 11/11/11 13/13/13 12/12/12
f 13/13/13 14/14/14 12/12/12
f 13/13/13 15/15/15 14/14/14
f 15/15/15 16/16/16 14/14/14
f 15/15/15 17/17/17 16/16/16
f 17/17/17 18/18/18 16/16/16
f 17/17/17 19/19/19 18/18/18
f 19/19/19 20/20/20 18/18/18
f 19/19/19 21/21/21 20/20/20
f 21/21/21 22/22/22 20/20/20
f 21/21/21 23/23/23 22/22/22
f 23/23/23 24/24/24 22/22/22
f 23/23/23 25/25/25 24/24/24
f 25/25/25 26/26/26 24/24/24
f 25/25/25 27/27/27 26/26/26
f 27/27/27 28/28/28 26/26/26
f 27/27/27 29/29/29 28/28/28
f 29/29/29 30/30/30 28/28/28
f 29/29/29 31/31/31 30/30/30
f 31/31/31 32/32/32 30/30/30
f 31/31/31 33/33/33 32/32/32
f 33/33/33 34/34/34 32/32/32
f 33/33/33 35/35/35 34/34/34
f 35/35/35 36/36/36 34/34/34
f 35/35/35 37/37/37 36/36/36
f 37/37/37 38/38/38 36/36/36
f 37/37/37 39/39/39 38/38/38
f 39/39/39 40/40/40 38/38/38
f 39/39/39 41/41/41 40/40/40
f 41/41/41 42/42/42 40/40/40
f 41/41/41 43/43/43 42/42/42
f 43/43/43 44/44/44 42/42/42
f 43/43/43 45/45/45 44/44/44
f 45/45/45 46/46/46 44/44/44
f 45/45/45 47/47/47 46/46/46
f 47/47/47 48/48/48 46/46/46
f 47/47/47 49/49/49 48/48/48
f 49/49/49 50/50/50 48/48/48
f 49/49/49 51/51/51 50/50/50
f 51/51/51 52/52/52 50/50/50
f 51/51/51 53/53/53 52/52/52
f 53/53/53 54/54/54 52/52/52
f 53/53/53 55/55/55 54/54/54
f 55/55/55 56/56/56 54/54/54
f 55/55/55 57/57/57 56/56/56
f 57/57/57 58/58/58 56/56/56
f 57/57/57 59/59/59 58/58/58
f 59/59/59 60/60/60 58/58/58
f 59/59/59 61/61/61 60/60/60
f 61/61/61 62/62/62 60/60/60
f 61/61/61 63/63/63 62/62/62
f 63/63/63 64/64/64 62/62/62
f 63/63/63 65/65/65 64/64/64
f 65/65/65 66/66/66 64/64/64
