g mesh_Ring_A
v -2.525271E-07 -0.775 0
v -0.1950907 -0.9807852 0
v -3.258414E-07 -1 0
v -0.1511953 -0.7601085 0
v -1.792128E-07 -0.55 0
v -0.1072999 -0.5394319 0
v -0.3826839 -0.9238793 0
v -0.29658 -0.7160065 0
v -0.5555707 -0.8314693 0
v -0.4305673 -0.6443887 0
v -0.2104761 -0.5081336 0
v -0.7071072 -0.7071064 0
v -0.3055639 -0.4573081 0
v -0.5480081 -0.5480074 0
v -0.83147 -0.5555696 0
v -0.388909 -0.3889085 0
v -0.6443893 -0.4305665 0
v -0.9238799 -0.3826827 0
v -0.4573085 -0.3055633 0
v -0.7160069 -0.2965791 0
v -0.5081339 -0.2104755 0
v -0.9807854 -0.1950895 0
v -0.7601087 -0.1511943 0
v -1 9.655992E-07 0
v -0.775 7.483393E-07 0
v -0.539432 -0.1072992 0
v -0.9807851 0.1950914 0
v -0.55 5.310795E-07 0
v -0.7601085 0.1511958 0
v -0.9238791 0.3826845 0
v -0.5394318 0.1073003 0
v -0.7160063 0.2965805 0
v -0.8314689 0.5555713 0
v -0.5081335 0.2104765 0
v -0.6443884 0.4305677 0
v -0.7071059 0.7071077 0
v -0.4573079 0.3055642 0
v -0.5480071 0.5480084 0
v -0.3889082 0.3889092 0
v -0.5555691 0.8314704 0
v -0.4305661 0.6443895 0
v -0.3826821 0.9238801 0
v -0.2965786 0.7160071 0
v -0.305563 0.4573087 0
v -0.1950888 0.9807855 0
v -0.2104751 0.5081341 0
v -0.1511938 0.7601088 0
v -0.1072989 0.539432 0
v 0 0.775 0
v 0 0.55 0
v 0.151195 0.7601086 0
v 0.1072997 0.5394319 0
v 0.1950903 0.9807853 0
v 0 1 0
v 0.3826835 0.9238795 0
v 0.2965797 0.7160066 0
v 0.2104759 0.5081338 0
v 0.5555702 0.8314696 0
v 0.4305669 0.6443889 0
v 0.3055636 0.4573083 0
v 0.7071068 0.7071068 0
v 0.5480077 0.5480077 0
v 0.3889087 0.3889087 0
v 0.8314697 0.5555702 0
v 0.644389 0.4305669 0
v 0.4573083 0.3055636 0
v 0.9238795 0.3826834 0
v 0.7160066 0.2965797 0
v 0.5081338 0.2104759 0
v 0.9807853 0.1950904 0
v 0.7601086 0.151195 0
v 0.5394319 0.1072997 0
v 1 7.54979E-08 0
v 0.775 5.851087E-08 0
v 0.9807853 -0.1950902 0
v 0.7601086 -0.1511949 0
v 0.55 4.152385E-08 0
v 0.9238796 -0.3826833 0
v 0.5394319 -0.1072996 0
v 0.7160066 -0.2965795 0
v 0.8314697 -0.5555702 0
v 0.5081338 -0.2104758 0
v 0.644389 -0.4305669 0
v 0.7071068 -0.7071068 0
v 0.4573083 -0.3055636 0
v 0.5480077 -0.5480077 0
v 0.5555702 -0.8314697 0
v 0.3889087 -0.3889087 0
v 0.4305669 -0.644389 0
v 0.3826833 -0.9238796 0
v 0.3055636 -0.4573083 0
v 0.2965795 -0.7160067 0
v 0.1950901 -0.9807853 0
v 0.2104758 -0.5081338 0
v 0.1511948 -0.7601086 0
v -3.258414E-07 -1 0
v 0.1072996 -0.5394319 0
v -2.525271E-07 -0.775 0
v -1.792128E-07 -0.55 0
v -0.1511938 0.7601088 0
v 0 0.775 0
v 0 1 0
v -0.1950888 0.9807855 0
v -0.3889082 0.3889092 0
v -0.305563 0.4573087 0
v -0.4305661 0.6443895 0
v -0.5480071 0.5480084 0
v 0.5394319 0.1072997 0
v 0.55 4.152385E-08 0
v 0.775 5.851087E-08 0
v 0.7601086 0.151195 0
v -0.1072999 -0.5394319 0
v -0.2104761 -0.5081336 0
v -0.29658 -0.7160065 0
v -0.1511953 -0.7601085 0
v -0.5081339 -0.2104755 0
v -0.539432 -0.1072992 0
v -0.7601087 -0.1511943 0
v -0.7160069 -0.2965791 0
vt 0.0002513528 0.4361591
vt 0.03149343 0.5000007
vt 0.0002514124 0.5000007
vt 0.03149343 0.4361591
vt 0.0002512932 0.3243322
vt 0.03149343 0.3243323
vt 0.0627358 0.5000007
vt 0.06273574 0.4361591
vt 0.09397799 0.5000007
vt 0.09397799 0.4361591
vt 0.06273568 0.3243323
vt 0.12522 0.5000007
vt 0.09397793 0.3243323
vt 0.1252199 0.4361591
vt 0.1564622 0.5000007
vt 0.12522 0.3243323
vt 0.1564621 0.4361591
vt 0.1877042 0.5000007
vt 0.1564621 0.3243322
vt 0.1877041 0.4361591
vt 0.1877042 0.3243322
vt 0.2189465 0.5000007
vt 0.2189464 0.4361591
vt 0.2501886 0.5000007
vt 0.2501886 0.4361591
vt 0.2189465 0.3243323
vt 0.2814308 0.5000007
vt 0.2501886 0.3243323
vt 0.2814308 0.4361591
vt 0.3126729 0.5000007
vt 0.2814308 0.3243323
vt 0.3126729 0.4361591
vt 0.343915 0.5000007
vt 0.3126729 0.3243323
vt 0.343915 0.4361591
vt 0.3751572 0.5000007
vt 0.3439151 0.3243323
vt 0.3751573 0.4361591
vt 0.3751572 0.3243322
vt 0.4063994 0.5000007
vt 0.4063994 0.4361591
vt 0.4376416 0.5000007
vt 0.4376416 0.4361591
vt 0.4063993 0.3243322
vt 0.4688838 0.5000007
vt 0.4376415 0.3243322
vt 0.4688838 0.4361591
vt 0.4688838 0.3243322
vt 0.5001256 0.4361591
vt 0.5001256 0.3243322
vt 0.5313679 0.4361591
vt 0.5313678 0.3243322
vt 0.5313678 0.5000007
vt 0.5001256 0.5000007
vt 0.56261 0.5000007
vt 0.56261 0.4361591
vt 0.56261 0.3243322
vt 0.5938521 0.5000007
vt 0.5938522 0.4361591
vt 0.593852 0.3243322
vt 0.6250943 0.5000007
vt 0.6250943 0.4361591
vt 0.6250942 0.3243322
vt 0.6563364 0.5000007
vt 0.6563364 0.436159
vt 0.6563364 0.3243322
vt 0.6875786 0.5000007
vt 0.6875786 0.436159
vt 0.6875786 0.3243322
vt 0.7188208 0.5000007
vt 0.7188208 0.4361591
vt 0.7188208 0.3243322
vt 0.7500629 0.5000007
vt 0.7500629 0.4361591
vt 0.7813052 0.5000007
vt 0.7813051 0.4361591
vt 0.7500629 0.3243322
vt 0.8125472 0.5000007
vt 0.7813052 0.3243322
vt 0.8125471 0.4361591
vt 0.8437893 0.5000007
vt 0.8125471 0.3243322
vt 0.8437893 0.4361591
vt 0.8750316 0.5000007
vt 0.8437893 0.3243322
vt 0.8750315 0.4361591
vt 0.9062737 0.5000007
vt 0.8750315 0.3243322
vt 0.9062737 0.4361591
vt 0.937516 0.5000007
vt 0.9062737 0.3243322
vt 0.9375159 0.4361591
vt 0.968758 0.5000007
vt 0.9375159 0.3243322
vt 0.9687579 0.4361591
vt 1 0.5000006
vt 0.9687579 0.3243322
vt 1 0.436159
vt 1 0.3243322
vt 0.4688838 0.4361591
vt 0.5001256 0.4361591
vt 0.5001256 0.5000007
vt 0.4688838 0.5000007
vt 0.3751572 0.3243322
vt 0.4063993 0.3243322
vt 0.4063994 0.4361591
vt 0.3751573 0.4361591
vt 0.7188208 0.3243322
vt 0.7500629 0.3243322
vt 0.7500629 0.4361591
vt 0.7188208 0.4361591
vt 0.03149343 0.3243323
vt 0.06273568 0.3243323
vt 0.06273574 0.4361591
vt 0.03149343 0.4361591
vt 0.1877042 0.3243322
vt 0.2189465 0.3243323
vt 0.2189464 0.4361591
vt 0.1877041 0.4361591
vn 0 0 -1
vn 0 0 -1
vn 0 0 -1
vn 0 0 -1
vn 0 0 -1
vn 0 0 -1
vn 0 0 -1
vn 0 0 -1
vn 0 0 -1
vn 0 0 -1
vn 0 0 -1
vn 0 0 -1
vn 0 0 -1
vn 0 0 -1
vn 0 0 -1
vn 0 0 -1
vn 0 0 -1
vn 0 0 -1
vn 0 0 -1
vn 0 0 -1
vn 0 0 -1
vn 0 0 -1
vn 0 0 -1
vn 0 0 -1
vn 0 0 -1
vn 0 0 -1
vn 0 0 -1
vn 0 0 -1
vn 0 0 -1
vn 0 0 -1
vn 0 0 -1
vn 0 0 -1
vn 0 0 -1
vn 0 0 -1
vn 0 0 -1
vn 0 0 -1
vn 0 0 -1
vn 0 0 -1
vn 0 0 -1
vn 0 0 -1
vn 0 0 -1
vn 0 0 -1
vn 0 0 -1
vn 0 0 -1
vn 0 0 -1
vn 0 0 -1
vn 0 0 -1
vn 0 0 -1
vn 0 0 -1
vn 0 0 -1
vn 0 0 -1
vn 0 0 -1
vn 0 0 -1
vn 0 0 -1
vn 0 0 -1
vn 0 0 -1
vn 0 0 -1
vn 0 0 -1
vn 0 0 -1
vn 0 0 -1
vn 0 0 -1
vn 0 0 -1
vn 0 0 -1
vn 0 0 -1
vn 0 0 -1
vn 0 0 -1
vn 0 0 -1
vn 0 0 -1
vn 0 0 -1
vn 0 0 -1
vn 0 0 -1
vn 0 0 -1
vn 0 0 -1
vn 0 0 -1
vn 0 0 -1
vn 0 0 -1
vn 0 0 -1
vn 0 0 -1
vn 0 0 -1
vn 0 0 -1
vn 0 0 -1
vn 0 0 -1
vn 0 0 -1
vn 0 0 -1
vn 0 0 -1
vn 0 0 -1
vn 0 0 -1
vn 0 0 -1
vn 0 0 -1
vn 0 0 -1
vn 0 0 -1
vn 0 0 -1
vn 0 0 -1
vn 0 0 -1
vn 0 0 -1
vn 0 0 -1
vn 0 0 -1
vn 0 0 -1
vn 0 0 -1
vn 0 0 -1
vn 0 0 -1
vn 0 0 -1
vn 0 0 -1
vn 0 0 -1
vn 0 0 -1
vn 0 0 -1
vn 0 0 -1
vn 0 0 -1
vn 0 0 -1
vn 0 0 -1
vn 0 0 -1
vn 0 0 -1
vn 0 0 -1
vn 0 0 -1
vn 0 0 -1
vn 0 0 -1
vn 0 0 -1
vn 0 0 -1
vn 0 0 -1
g mesh_Ring_A_0
f 3/3/3 2/2/2 1/1/1
f 2/2/2 4/4/4 1/1/1
f 1/1/1 4/4/4 5/5/5
f 4/4/4 6/6/6 5/5/5
f 2/2/2 7/7/7 4/4/4
f 7/7/7 8/8/8 4/4/4
f 7/7/7 9/9/9 8/8/8
f 9/9/9 10/10/10 8/8/8
f 8/8/8 10/10/10 11/11/11
f 9/9/9 12/12/12 10/10/10
f 10/10/10 13/13/13 11/11/11
f 12/12/12 14/14/14 10/10/10
f 10/10/10 14/14/14 13/13/13
f 12/12/12 15/15/15 14/14/14
f 14/14/14 16/16/16 13/13/13
f 15/15/15 17/17/17 14/14/14
f 14/14/14 17/17/17 16/16/16
f 15/15/15 18/18/18 17/17/17
f 17/17/17 19/19/19 16/16/16
f 18/18/18 20/20/20 17/17/17
f 17/17/17 20/20/20 19/19/19
f 20/20/20 21/21/21 19/19/19
f 18/18/18 22/22/22 20/20/20
f 22/22/22 23/23/23 20/20/20
f 22/22/22 24/24/24 23/23/23
f 24/24/24 25/25/25 23/23/23
f 23/23/23 25/25/25 26/26/26
f 24/24/24 27/27/27 25/25/25
f 25/25/25 28/28/28 26/26/26
f 27/27/27 29/29/29 25/25/25
f 25/25/25 29/29/29 28/28/28
f 27/27/27 30/30/30 29/29/29
f 29/29/29 31/31/31 28/28/28
f 30/30/30 32/32/32 29/29/29
f 29/29/29 32/32/32 31/31/31
f 30/30/30 33/33/33 32/32/32
f 32/32/32 34/34/34 31/31/31
f 33/33/33 35/35/35 32/32/32
f 32/32/32 35/35/35 34/34/34
f 33/33/33 36/36/36 35/35/35
f 35/35/35 37/37/37 34/34/34
f 36/36/36 38/38/38 35/35/35
f 35/35/35 38/38/38 37/37/37
f 38/38/38 39/39/39 37/37/37
f 36/36/36 40/40/40 38/38/38
f 40/40/40 41/41/41 38/38/38
f 40/40/40 42/42/42 41/41/41
f 42/42/42 43/43/43 41/41/41
f 41/41/41 43/43/43 44/44/44
f 42/42/42 45/45/45 43/43/43
f 43/43/43 46/46/46 44/44/44
f 45/45/45 47/47/47 43/43/43
f 43/43/43 47/47/47 46/46/46
f 47/47/47 48/48/48 46/46/46
f 47/47/47 49/49/49 48/48/48
f 49/49/49 50/50/50 48/48/48
f 49/49/49 51/51/51 50/50/50
f 51/51/51 52/52/52 50/50/50
f 53/53/53 51/51/51 49/49/49
f 54/54/54 53/53/53 49/49/49
f 53/53/53 55/55/55 51/51/51
f 51/51/51 56/56/56 52/52/52
f 55/55/55 56/56/56 51/51/51
f 56/56/56 57/57/57 52/52/52
f 55/55/55 58/58/58 56/56/56
f 56/56/56 59/59/59 57/57/57
f 58/58/58 59/59/59 56/56/56
f 59/59/59 60/60/60 57/57/57
f 58/58/58 61/61/61 59/59/59
f 59/59/59 62/62/62 60/60/60
f 61/61/61 62/62/62 59/59/59
f 62/62/62 63/63/63 60/60/60
f 61/61/61 64/64/64 62/62/62
f 62/62/62 65/65/65 63/63/63
f 64/64/64 65/65/65 62/62/62
f 65/65/65 66/66/66 63/63/63
f 64/64/64 67/67/67 65/65/65
f 65/65/65 68/68/68 66/66/66
f 67/67/67 68/68/68 65/65/65
f 68/68/68 69/69/69 66/66/66
f 67/67/67 70/70/70 68/68/68
f 68/68/68 71/71/71 69/69/69
f 70/70/70 71/71/71 68/68/68
f 71/71/71 72/72/72 69/69/69
f 70/70/70 73/73/73 71/71/71
f 73/73/73 74/74/74 71/71/71
f 73/73/73 75/75/75 74/74/74
f 75/75/75 76/76/76 74/74/74
f 74/74/74 76/76/76 77/77/77
f 75/75/75 78/78/78 76/76/76
f 76/76/76 79/79/79 77/77/77
f 78/78/78 80/80/80 76/76/76
f 76/76/76 80/80/80 79/79/79
f 78/78/78 81/81/81 80/80/80
f 80/80/80 82/82/82 79/79/79
f 81/81/81 83/83/83 80/80/80
f 80/80/80 83/83/83 82/82/82
f 81/81/81 84/84/84 83/83/83
f 83/83/83 85/85/85 82/82/82
f 84/84/84 86/86/86 83/83/83
f 83/83/83 86/86/86 85/85/85
f 84/84/84 87/87/87 86/86/86
f 86/86/86 88/88/88 85/85/85
f 87/87/87 89/89/89 86/86/86
f 86/86/86 89/89/89 88/88/88
f 87/87/87 90/90/90 89/89/89
f 89/89/89 91/91/91 88/88/88
f 90/90/90 92/92/92 89/89/89
f 89/89/89 92/92/92 91/91/91
f 90/90/90 93/93/93 92/92/92
f 92/92/92 94/94/94 91/91/91
f 93/93/93 95/95/95 92/92/92
f 92/92/92 95/95/95 94/94/94
f 93/93/93 96/96/96 95/95/95
f 95/95/95 97/97/97 94/94/94
f 96/96/96 98/98/98 95/95/95
f 95/95/95 98/98/98 97/97/97
f 98/98/98 99/99/99 97/97/97
f 102/102/102 101/101/101 100/100/100
f 103/103/103 102/102/102 100/100/100
f 106/106/106 105/105/105 104/104/104
f 107/107/107 106/106/106 104/104/104
f 110/110/110 109/109/109 108/108/108
f 111/111/111 110/110/110 108/108/108
f 114/114/114 113/113/113 112/112/112
f 115/115/115 114/114/114 112/112/112
f 118/118/118 117/117/117 116/116/116
f 119/119/119 118/118/118 116/116/116
