g mesh_Teleporter_PentagramGlow_A
v -0.3029991 1.134872E-06 0.3132622
v -0.3429445 0.4000013 0.3545591
v 0.007815242 0.3999982 -0.4916192
v 0.006904952 -1.572362E-06 -0.4343553
v 0.4323695 -5.087653E-07 -0.1408092
v 0.4893701 0.3999994 -0.1593739
v -0.3429445 0.4000013 0.3545591
v -0.3029991 1.134872E-06 0.3132622
v 0.006904952 -1.572362E-06 -0.4343553
v 0.007815242 0.3999982 -0.4916192
v 0.3317041 0.4000013 0.357989
v 0.293068 1.146131E-06 0.3162926
v -0.4302048 -5.123003E-07 -0.1417059
v -0.4869201 0.3999994 -0.1603889
v 0.4893701 0.3999994 -0.1593739
v 0.4323695 -5.087653E-07 -0.1408092
v 0.293068 1.146131E-06 0.3162926
v 0.3317041 0.4000013 0.357989
v -0.4869201 0.3999994 -0.1603889
v -0.4302048 -5.123003E-07 -0.1417059
vt 1 0
vt 1 1
vt 0 1
vt 0 0
vt 0 0
vt 0 1
vt 1 1
vt 1 0
vt 0 0
vt 0 1
vt 1 1
vt 1 0
vt 1 0
vt 1 1
vt 0 1
vt 0 0
vt 0 0
vt 0 1
vt 1 1
vt 1 0
vn 0.9224977 0.05264436 0.3823957
vn 0.9224977 0.05264436 0.3823957
vn 0.9224977 0.05264436 0.3823957
vn 0.9224977 0.05264436 0.3823957
vn -0.5250581 0.03535604 -0.8503317
vn -0.5250581 0.03535604 -0.8503317
vn -0.5250581 0.03535604 -0.8503317
vn -0.5250581 0.03535604 -0.8503317
vn -0.9330885 0.05304726 0.3557131
vn -0.9330885 0.05304726 0.3557131
vn -0.9330885 0.05304726 0.3557131
vn -0.9330885 0.05304726 0.3557131
vn -0.001038518 0.0465097 0.9989173
vn -0.001038518 0.0465097 0.9989173
vn -0.001038518 0.0465097 0.9989173
vn -0.001038518 0.0465097 0.9989173
vn 0.5346363 0.03637 -0.8442993
vn 0.5346363 0.03637 -0.8442993
vn 0.5346363 0.03637 -0.8442993
vn 0.5346363 0.03637 -0.8442993
g mesh_Teleporter_PentagramGlow_A_0
f 3/3/3 2/2/2 1/1/1
f 4/4/4 3/3/3 1/1/1
f 7/7/7 6/6/6 5/5/5
f 8/8/8 7/7/7 5/5/5
f 11/11/11 10/10/10 9/9/9
f 12/12/12 11/11/11 9/9/9
f 15/15/15 14/14/14 13/13/13
f 16/16/16 15/15/15 13/13/13
f 19/19/19 18/18/18 17/17/17
f 20/20/20 19/19/19 17/17/17
