g mesh_MegaSlash_GroundScorch_A
v 0.3616858 0.3383864 0
v 0.05681195 0.08497439 0
v 0.04821049 0.09013878 0
v 0.3276922 0.3592096 0
v 0.03912484 0.09441403 0
v 0.291709 0.3765042 0
v 0.02966426 0.09777757 0
v 0.6101683 0.63153 0
v 0.2541713 0.3901709 0
v 0.01998544 0.1003045 0
v 0.5470705 0.6620995 0
v 0.2157051 0.4005005 0
v 0.01005949 0.1017944 0
v 0.481171 0.6862528 0
v 0.1761982 0.4066865 0
v 3.318476E-05 0.1023041 0
v 0.1362393 0.4089475 0
v 0.4134697 0.7042988 0
v 0.3438764 0.7148771 0
v 0.2735514 0.7185642 0
v 0.5120866 1.023889 0
v 0.4112693 1.028919 0
v 0.6118423 1.008881 0
v 0.708966 0.983247 0
v 0.8037976 0.9491508 0
v 0.8947384 0.9058433 0
v 0.9806687 0.853565 0
v 0.6696879 0.5947303 0
v 1.060833 0.7929892 0
v 0.7251068 0.5521838 0
v 1.134519 0.7248029 0
v 0.3616858 0.3383864 0
v 0.7759345 0.504383 0
v 1.201 0.6496899 0
v 0.3933978 0.3143019 0
v 0.8216741 0.4518178 0
v 1.259623 0.5684043 0
v 0.4225534 0.2872276 0
v 0.06485585 0.07898568 0
v 0.07227247 0.07223842 0
v 0.4488725 0.2574326 0
v 0.8618817 0.3950256 0
v 1.309813 0.4817615 0
v 0.4721032 0.2252121 0
v 0.07899062 0.0647979 0
v 0.08494588 0.05673608 0
v 0.8961704 0.3345847 0
v 1.35108 0.3906312 0
v 0.4920245 0.1908848 0
v 0.09008113 0.04813086 0
v 0.9242147 0.271109 0
v 1.384893 0.2963277 0
v 0.9457529 0.2052411 0
v 0.5084482 0.1547892 0
v 0.09434713 0.03906538 0
v 0.5212207 0.1172803 0
v 0.09771927 0.02963202 0
v 0.5314656 0.07891068 0
v 0.1001529 0.01991432 0
v 0.9645289 0.1382102 0
v 0.5378887 0.0396903 0
v 0.1016423 0.01000692 0
v 0.9765615 0.06957 0
v 0.5404204 -2.814338E-07 0
v 0.1021533 -6.85323E-07 0
v 1.426148 0.1002136 0
v 1.409647 0.19921 0
v 1.432704 5.21077E-07 0
v 0.981711 1.175092E-07 0
v 0.979907 -0.06980803 0
v 0.5390291 -0.03977497 0
v 0.1016807 -0.01001206 0
v 0.5337217 -0.07924623 0
v 0.1002285 -0.01993074 0
v 0.97115 -0.1391587 0
v 0.5245434 -0.1180285 0
v 0.09781043 -0.02966103 0
v 0.9555106 -0.2073584 0
v 0.5115776 -0.1557424 0
v 0.09444951 -0.03910911 0
v 1.392437 -0.2979408 0
v 1.415773 -0.2000747 0
v 1.359456 -0.3930517 0
v 0.9331297 -0.2737238 0
v 0.9042165 -0.3375883 0
v 0.4949449 -0.1920183 0
v 0.09017771 -0.04818381 0
v 0.474802 -0.2265001 0
v 0.08503585 -0.0567975 0
v 0.8690472 -0.3983095 0
v 0.4513406 -0.2588486 0
v 0.07907327 -0.06486702 0
v 0.827962 -0.4552752 0
v 0.424785 -0.2887451 0
v 0.07234708 -0.0723144 0
v 0.7813616 -0.5079106 0
v 0.39539 -0.3158943 0
v 0.0649219 -0.0790676 0
v 1.20633 -0.6525723 0
v 1.265941 -0.5712544 0
v 1.138908 -0.727606 0
v 1.064341 -0.7956113 0
v 0.7296962 -0.5556788 0
v 0.9833669 -0.8559135 0
v 0.363439 -0.3400277 0
v 0.05686906 -0.08506138 0
v 0.6732438 -0.5978885 0
v 0.363439 -0.3400277 0
v 0.424785 -0.2887451 0
v 0.7813616 -0.5079106 0
v 0.6732438 -0.5978885 0
v 0.8966732 -0.9078025 0
v 0.6128362 -0.6342922 0
v 0.8051214 -0.9507147 0
v 0.3292099 -0.3608745 0
v 0.04825825 -0.09022981 0
v 0.5489951 -0.6644297 0
v 0.7098172 -0.984429 0
v 0.2929971 -0.378168 0
v 0.03916305 -0.09450803 0
v 0.2552389 -0.3918113 0
v 0.0296928 -0.09787355 0
v 0.4824945 -0.6881419 0
v 0.6123425 -1.009708 0
v 0.4144436 -0.70596 0
v 0.5124082 -1.024535 0
v 0.2552389 -0.3918113 0
v 0.3446362 -0.7164599 0
v 0.4115001 -1.029493 0
v 0.2741184 -0.7200511 0
v 0.2165648 -0.4020989 0
v 0.1768625 -0.4082226 0
v 0.0200043 -0.1004017 0
v 0.1367251 -0.410405 0
v 0.0100687 -0.1018917 0
v 3.330718E-05 -0.1024006 0
v 0.2165648 -0.4020989 0
v 0.0296928 -0.09787355 0
v 0.0200043 -0.1004017 0
v 0.4488725 0.2574326 0
v 0.07899062 0.0647979 0
v 0.07227247 0.07223842 0
v 0.4225534 0.2872276 0
v 0.3933978 0.3143019 0
v 0.06485585 0.07898568 0
v 0.05681195 0.08497439 0
v 0.4824945 -0.6881419 0
v 0.2929971 -0.378168 0
v 0.5489951 -0.6644297 0
v 1.317152 -0.4844597 0
v 0.9331297 -0.2737238 0
v 1.359456 -0.3930517 0
v 1.265941 -0.5712544 0
v 0.8690472 -0.3983095 0
v 1.429237 -0.1004295 0
v 0.981711 1.175092E-07 0
v 1.432704 5.21077E-07 0
v 1.415773 -0.2000747 0
v 0.97115 -0.1391587 0
v 1.409647 0.19921 0
v 0.9645289 0.1382102 0
v 1.384893 0.2963277 0
v 0.6696879 0.5947303 0
v 0.3276922 0.3592096 0
v 0.6101683 0.63153 0
vt 0.1874741 0.3333321
vt 0.1874741 -1.192093E-06
vt 0.1562133 -1.192093E-06
vt 0.1562133 0.3333321
vt 0.1249317 -1.192093E-06
vt 0.1249318 0.3333321
vt 0.09365726 -1.192093E-06
vt 0.1562133 0.6666654
vt 0.09365731 0.3333321
vt 0.06250536 -1.192093E-06
vt 0.1249318 0.6666654
vt 0.06250542 0.3333321
vt 0.03125268 -1.192093E-06
vt 0.09365731 0.6666654
vt 0.03125274 0.3333321
vt -1.072884E-06 -1.192093E-06
vt -9.536743E-07 0.3333321
vt 0.06250542 0.6666654
vt 0.03125274 0.6666654
vt -9.536743E-07 0.6666654
vt 0.0312528 0.9999988
vt -9.536743E-07 0.9999988
vt 0.06250548 0.9999988
vt 0.09365737 0.9999988
vt 0.1249318 0.9999988
vt 0.1562134 0.9999988
vt 0.1874742 0.9999988
vt 0.1874741 0.6666654
vt 0.2187267 0.9999988
vt 0.2187266 0.6666654
vt 0.2499792 0.9999988
vt 0.1874741 0.3333321
vt 0.2499791 0.6666654
vt 0.2812318 0.9999988
vt 0.2187266 0.3333321
vt 0.2812318 0.6666654
vt 0.3124843 0.9999988
vt 0.2499791 0.3333321
vt 0.2187266 -1.192093E-06
vt 0.2499791 -1.192093E-06
vt 0.2812318 0.3333321
vt 0.3124843 0.6666654
vt 0.3437369 0.9999987
vt 0.3124843 0.3333321
vt 0.2812317 -1.192093E-06
vt 0.3124842 -1.192093E-06
vt 0.3437368 0.6666654
vt 0.3749894 0.9999987
vt 0.3437368 0.3333321
vt 0.3437368 -1.192093E-06
vt 0.3749893 0.6666654
vt 0.406242 0.9999987
vt 0.406242 0.6666654
vt 0.3749893 0.3333321
vt 0.3749893 -1.192093E-06
vt 0.406242 0.3333321
vt 0.4062419 -1.192093E-06
vt 0.4374945 0.3333321
vt 0.4374944 -1.192093E-06
vt 0.4374945 0.6666654
vt 0.468747 0.3333321
vt 0.468747 -1.192093E-06
vt 0.468747 0.6666654
vt 0.4999996 0.3333321
vt 0.4999996 -1.192093E-06
vt 0.4687471 0.9999987
vt 0.4374945 0.9999987
vt 0.4999996 0.9999987
vt 0.4999996 0.6666654
vt 0.5312521 0.6666654
vt 0.531252 0.3333321
vt 0.531252 -1.192093E-06
vt 0.5625046 0.3333321
vt 0.5625046 -1.192093E-06
vt 0.5625046 0.6666654
vt 0.5937571 0.3333321
vt 0.5937571 -1.192093E-06
vt 0.5937572 0.6666654
vt 0.6250096 0.3333321
vt 0.6250096 -1.192093E-06
vt 0.5937572 0.9999987
vt 0.5625047 0.9999987
vt 0.6250097 0.9999987
vt 0.6250097 0.6666654
vt 0.6562622 0.6666654
vt 0.6562622 0.3333321
vt 0.6562621 -1.192093E-06
vt 0.6875147 0.3333321
vt 0.6875147 -1.192093E-06
vt 0.6875147 0.6666654
vt 0.7187672 0.3333321
vt 0.7187672 -1.192093E-06
vt 0.7187672 0.6666654
vt 0.7500197 0.3333321
vt 0.7500197 -1.192093E-06
vt 0.7500197 0.6666654
vt 0.7812724 0.333332
vt 0.7812723 -1.192093E-06
vt 0.7187672 0.9999987
vt 0.6875147 0.9999987
vt 0.7500198 0.9999987
vt 0.7812724 0.9999987
vt 0.7812724 0.6666653
vt 0.812525 0.9999987
vt 0.812525 0.333332
vt 0.8125249 -1.192093E-06
vt 0.812525 0.6666653
vt 0.812525 0.333332
vt 0.7500197 0.3333321
vt 0.7500197 0.6666654
vt 0.812525 0.6666653
vt 0.8437858 0.9999987
vt 0.8437858 0.6666653
vt 0.8750674 0.9999987
vt 0.8437858 0.333332
vt 0.8437857 -1.311302E-06
vt 0.8750674 0.6666653
vt 0.9063419 0.9999987
vt 0.8750674 0.333332
vt 0.8750674 -1.311302E-06
vt 0.9063419 0.333332
vt 0.9063419 -1.311302E-06
vt 0.9063419 0.6666653
vt 0.9374938 0.9999987
vt 0.9374937 0.6666653
vt 0.9687464 0.9999987
vt 0.9063419 0.333332
vt 0.9687463 0.6666653
vt 0.999999 0.9999987
vt 0.999999 0.6666653
vt 0.9374937 0.333332
vt 0.9687463 0.333332
vt 0.9374937 -1.311302E-06
vt 0.999999 0.333332
vt 0.9687463 -1.311302E-06
vt 0.9999989 -1.311302E-06
vt 0.9374937 0.333332
vt 0.9063419 -1.311302E-06
vt 0.9374937 -1.311302E-06
vt 0.2812318 0.3333321
vt 0.2812317 -1.192093E-06
vt 0.2499791 -1.192093E-06
vt 0.2499791 0.3333321
vt 0.2187266 0.3333321
vt 0.2187266 -1.192093E-06
vt 0.1874741 -1.192093E-06
vt 0.9063419 0.6666653
vt 0.8750674 0.333332
vt 0.8750674 0.6666653
vt 0.6562622 0.9999987
vt 0.6250097 0.6666654
vt 0.6250097 0.9999987
vt 0.6875147 0.9999987
vt 0.6875147 0.6666654
vt 0.5312521 0.9999987
vt 0.4999996 0.6666654
vt 0.4999996 0.9999987
vt 0.5625047 0.9999987
vt 0.5625046 0.6666654
vt 0.4374945 0.9999987
vt 0.4374945 0.6666654
vt 0.406242 0.9999987
vt 0.1874741 0.6666654
vt 0.1562133 0.3333321
vt 0.1562133 0.6666654
vn 0 0 1
vn 0 0 1
vn 0 0 1
vn 0 0 1
vn 0 0 1
vn 0 0 1
vn 0 0 1
vn 0 0 1
vn 0 0 1
vn 0 0 1
vn 0 0 1
vn 0 0 1
vn 0 0 1
vn 0 0 1
vn 0 0 1
vn 0 0 1
vn 0 0 1
vn 0 0 1
vn 0 0 1
vn 0 0 1
vn 0 0 1
vn 0 0 1
vn 0 0 1
vn 0 0 1
vn 0 0 1
vn 0 0 1
vn 0 0 1
vn 0 0 1
vn 0 0 1
vn 0 0 1
vn 0 0 1
vn 0 0 1
vn 0 0 1
vn 0 0 1
vn 0 0 1
vn 0 0 1
vn 0 0 1
vn 0 0 1
vn 0 0 1
vn 0 0 1
vn 0 0 1
vn 0 0 1
vn 0 0 1
vn 0 0 1
vn 0 0 1
vn 0 0 1
vn 0 0 1
vn 0 0 1
vn 0 0 1
vn 0 0 1
vn 0 0 1
vn 0 0 1
vn 0 0 1
vn 0 0 1
vn 0 0 1
vn 0 0 1
vn 0 0 1
vn 0 0 1
vn 0 0 1
vn 0 0 1
vn 0 0 1
vn 0 0 1
vn 0 0 1
vn 0 0 1
vn 0 0 1
vn 0 0 1
vn 0 0 1
vn 0 0 1
vn 0 0 1
vn 0 0 1
vn 0 0 1
vn 0 0 1
vn 0 0 1
vn 0 0 1
vn 0 0 1
vn 0 0 1
vn 0 0 1
vn 0 0 1
vn 0 0 1
vn 0 0 1
vn 0 0 1
vn 0 0 1
vn 0 0 1
vn 0 0 1
vn 0 0 1
vn 0 0 1
vn 0 0 1
vn 0 0 1
vn 0 0 1
vn 0 0 1
vn 0 0 1
vn 0 0 1
vn 0 0 1
vn 0 0 1
vn 0 0 1
vn 0 0 1
vn 0 0 1
vn 0 0 1
vn 0 0 1
vn 0 0 1
vn 0 0 1
vn 0 0 1
vn 0 0 1
vn 0 0 1
vn 0 0 1
vn 0 0 1
vn 0 0 1
vn 0 0 1
vn 0 0 1
vn 0 0 1
vn 0 0 1
vn 0 0 1
vn 0 0 1
vn 0 0 1
vn 0 0 1
vn 0 0 1
vn 0 0 1
vn 0 0 1
vn 0 0 1
vn 0 0 1
vn 0 0 1
vn 0 0 1
vn 0 0 1
vn 0 0 1
vn 0 0 1
vn 0 0 1
vn 0 0 1
vn 0 0 1
vn 0 0 1
vn 0 0 1
vn 0 0 1
vn 0 0 1
vn 0 0 1
vn 0 0 1
vn 0 0 1
vn 0 0 1
vn 0 0 1
vn 0 0 1
vn 0 0 1
vn 0 0 1
vn 0 0 1
vn 0 0 1
vn 0 0 1
vn 0 0 1
vn 0 0 1
vn 0 0 1
vn 0 0 1
vn 0 0 1
vn 0 0 1
vn 0 0 1
vn 0 0 1
vn 0 0 1
vn 0 0 1
vn 0 0 1
vn 0 0 1
vn 0 0 1
vn 0 0 1
vn 0 0 1
vn 0 0 1
vn 0 0 1
vn 0 0 1
vn 0 0 1
vn 0 0 1
vn 0 0 1
vn 0 0 1
g mesh_MegaSlash_GroundScorch_A_0
f 3/3/3 2/2/2 1/1/1
f 4/4/4 3/3/3 1/1/1
f 5/5/5 3/3/3 4/4/4
f 6/6/6 5/5/5 4/4/4
f 7/7/7 5/5/5 6/6/6
f 6/6/6 4/4/4 8/8/8
f 9/9/9 7/7/7 6/6/6
f 10/10/10 7/7/7 9/9/9
f 11/11/11 6/6/6 8/8/8
f 9/9/9 6/6/6 11/11/11
f 12/12/12 10/10/10 9/9/9
f 13/13/13 10/10/10 12/12/12
f 14/14/14 9/9/9 11/11/11
f 12/12/12 9/9/9 14/14/14
f 15/15/15 13/13/13 12/12/12
f 16/16/16 13/13/13 15/15/15
f 17/17/17 16/16/16 15/15/15
f 15/15/15 12/12/12 18/18/18
f 18/18/18 12/12/12 14/14/14
f 17/17/17 15/15/15 19/19/19
f 19/19/19 15/15/15 18/18/18
f 20/20/20 17/17/17 19/19/19
f 20/20/20 19/19/19 21/21/21
f 22/22/22 20/20/20 21/21/21
f 21/21/21 19/19/19 23/23/23
f 19/19/19 18/18/18 23/23/23
f 23/23/23 18/18/18 24/24/24
f 18/18/18 14/14/14 24/24/24
f 24/24/24 14/14/14 25/25/25
f 14/14/14 11/11/11 25/25/25
f 25/25/25 11/11/11 26/26/26
f 11/11/11 8/8/8 26/26/26
f 26/26/26 8/8/8 27/27/27
f 8/8/8 28/28/28 27/27/27
f 27/27/27 28/28/28 29/29/29
f 28/28/28 30/30/30 29/29/29
f 29/29/29 30/30/30 31/31/31
f 28/28/28 32/32/32 30/30/30
f 30/30/30 33/33/33 31/31/31
f 31/31/31 33/33/33 34/34/34
f 32/32/32 35/35/35 30/30/30
f 30/30/30 35/35/35 33/33/33
f 33/33/33 36/36/36 34/34/34
f 34/34/34 36/36/36 37/37/37
f 35/35/35 38/38/38 33/33/33
f 33/33/33 38/38/38 36/36/36
f 35/35/35 39/39/39 38/38/38
f 39/39/39 40/40/40 38/38/38
f 38/38/38 41/41/41 36/36/36
f 36/36/36 42/42/42 37/37/37
f 36/36/36 41/41/41 42/42/42
f 37/37/37 42/42/42 43/43/43
f 41/41/41 44/44/44 42/42/42
f 41/41/41 45/45/45 44/44/44
f 45/45/45 46/46/46 44/44/44
f 42/42/42 47/47/47 43/43/43
f 42/42/42 44/44/44 47/47/47
f 43/43/43 47/47/47 48/48/48
f 44/44/44 46/46/46 49/49/49
f 44/44/44 49/49/49 47/47/47
f 46/46/46 50/50/50 49/49/49
f 47/47/47 51/51/51 48/48/48
f 47/47/47 49/49/49 51/51/51
f 48/48/48 51/51/51 52/52/52
f 51/51/51 53/53/53 52/52/52
f 49/49/49 50/50/50 54/54/54
f 49/49/49 54/54/54 51/51/51
f 51/51/51 54/54/54 53/53/53
f 50/50/50 55/55/55 54/54/54
f 54/54/54 55/55/55 56/56/56
f 54/54/54 56/56/56 53/53/53
f 55/55/55 57/57/57 56/56/56
f 56/56/56 57/57/57 58/58/58
f 57/57/57 59/59/59 58/58/58
f 53/53/53 56/56/56 60/60/60
f 56/56/56 58/58/58 60/60/60
f 58/58/58 59/59/59 61/61/61
f 59/59/59 62/62/62 61/61/61
f 60/60/60 58/58/58 63/63/63
f 58/58/58 61/61/61 63/63/63
f 61/61/61 62/62/62 64/64/64
f 62/62/62 65/65/65 64/64/64
f 60/60/60 63/63/63 66/66/66
f 67/67/67 60/60/60 66/66/66
f 66/66/66 63/63/63 68/68/68
f 63/63/63 69/69/69 68/68/68
f 63/63/63 61/61/61 69/69/69
f 61/61/61 64/64/64 69/69/69
f 69/69/69 64/64/64 70/70/70
f 64/64/64 65/65/65 71/71/71
f 64/64/64 71/71/71 70/70/70
f 65/65/65 72/72/72 71/71/71
f 71/71/71 72/72/72 73/73/73
f 72/72/72 74/74/74 73/73/73
f 70/70/70 71/71/71 75/75/75
f 71/71/71 73/73/73 75/75/75
f 73/73/73 74/74/74 76/76/76
f 74/74/74 77/77/77 76/76/76
f 75/75/75 73/73/73 78/78/78
f 73/73/73 76/76/76 78/78/78
f 76/76/76 77/77/77 79/79/79
f 77/77/77 80/80/80 79/79/79
f 75/75/75 78/78/78 81/81/81
f 82/82/82 75/75/75 81/81/81
f 81/81/81 78/78/78 83/83/83
f 78/78/78 84/84/84 83/83/83
f 78/78/78 76/76/76 84/84/84
f 76/76/76 79/79/79 84/84/84
f 84/84/84 79/79/79 85/85/85
f 79/79/79 80/80/80 86/86/86
f 79/79/79 86/86/86 85/85/85
f 80/80/80 87/87/87 86/86/86
f 86/86/86 87/87/87 88/88/88
f 87/87/87 89/89/89 88/88/88
f 85/85/85 86/86/86 90/90/90
f 86/86/86 88/88/88 90/90/90
f 88/88/88 89/89/89 91/91/91
f 89/89/89 92/92/92 91/91/91
f 90/90/90 88/88/88 93/93/93
f 88/88/88 91/91/91 93/93/93
f 91/91/91 92/92/92 94/94/94
f 92/92/92 95/95/95 94/94/94
f 91/91/91 94/94/94 96/96/96
f 93/93/93 91/91/91 96/96/96
f 94/94/94 95/95/95 97/97/97
f 95/95/95 98/98/98 97/97/97
f 90/90/90 93/93/93 99/99/99
f 100/100/100 90/90/90 99/99/99
f 99/99/99 93/93/93 101/101/101
f 93/93/93 96/96/96 101/101/101
f 101/101/101 96/96/96 102/102/102
f 96/96/96 103/103/103 102/102/102
f 102/102/102 103/103/103 104/104/104
f 97/97/97 98/98/98 105/105/105
f 98/98/98 106/106/106 105/105/105
f 103/103/103 97/97/97 107/107/107
f 97/97/97 108/108/108 107/107/107
f 109/109/109 97/97/97 103/103/103
f 110/110/110 109/109/109 103/103/103
f 103/103/103 111/111/111 104/104/104
f 104/104/104 111/111/111 112/112/112
f 111/111/111 113/113/113 112/112/112
f 111/111/111 105/105/105 113/113/113
f 112/112/112 113/113/113 114/114/114
f 105/105/105 106/106/106 115/115/115
f 105/105/105 115/115/115 113/113/113
f 106/106/106 116/116/116 115/115/115
f 113/113/113 117/117/117 114/114/114
f 113/113/113 115/115/115 117/117/117
f 114/114/114 117/117/117 118/118/118
f 115/115/115 116/116/116 119/119/119
f 115/115/115 119/119/119 117/117/117
f 116/116/116 120/120/120 119/119/119
f 119/119/119 120/120/120 121/121/121
f 120/120/120 122/122/122 121/121/121
f 117/117/117 123/123/123 118/118/118
f 118/118/118 123/123/123 124/124/124
f 123/123/123 125/125/125 124/124/124
f 124/124/124 125/125/125 126/126/126
f 123/123/123 127/127/127 125/125/125
f 125/125/125 128/128/128 126/126/126
f 126/126/126 128/128/128 129/129/129
f 128/128/128 130/130/130 129/129/129
f 127/127/127 131/131/131 125/125/125
f 125/125/125 131/131/131 128/128/128
f 128/128/128 132/132/132 130/130/130
f 131/131/131 132/132/132 128/128/128
f 131/131/131 133/133/133 132/132/132
f 132/132/132 134/134/134 130/130/130
f 133/133/133 135/135/135 132/132/132
f 132/132/132 135/135/135 134/134/134
f 135/135/135 136/136/136 134/134/134
f 127/127/127 138/138/138 137/137/137
f 138/138/138 139/139/139 137/137/137
f 142/142/142 141/141/141 140/140/140
f 143/143/143 142/142/142 140/140/140
f 146/146/146 145/145/145 144/144/144
f 32/32/32 146/146/146 144/144/144
f 149/149/149 148/148/148 147/147/147
f 148/148/148 121/121/121 147/147/147
f 152/152/152 151/151/151 150/150/150
f 151/151/151 85/85/85 150/150/150
f 150/150/150 85/85/85 153/153/153
f 85/85/85 154/154/154 153/153/153
f 157/157/157 156/156/156 155/155/155
f 156/156/156 70/70/70 155/155/155
f 155/155/155 70/70/70 158/158/158
f 70/70/70 159/159/159 158/158/158
f 53/53/53 161/161/161 160/160/160
f 162/162/162 53/53/53 160/160/160
f 165/165/165 164/164/164 163/163/163
f 164/164/164 1/1/1 163/163/163
