g mesh_fauxfluid_splatter_D
v 0.56532 0.09661429 2.793968E-09
v 0.5562119 -0.05632666 -0.09999998
v 0.5562119 -0.05632666 1.350418E-08
v 0.56532 0.09661429 -0.09999999
v 0.5424933 0.2292424 -7.916242E-09
v 0.5424933 0.2292424 -0.1
v 0.4735678 0.3348431 -1.862645E-08
v 0.4735678 0.3348431 -0.1
v 0.3720541 0.4418769 -2.840534E-08
v 0.3720541 0.4418769 -0.1
v 0.2584151 0.4676195 -3.72529E-08
v 0.2584151 0.4676195 -0.1
v 0.1666267 0.4681906 -4.423782E-08
v 0.1666267 0.4681906 -0.1
v 0.0715689 0.4994453 -5.029142E-08
v 0.0715689 0.4994453 -0.1
v -0.04554019 0.5580758 -5.401671E-08
v -0.04554019 0.5580758 -0.1
v -0.1285125 0.5789699 -5.587935E-08
v -0.1285125 0.5789699 -0.1000001
v -0.241845 0.5345464 -5.541369E-08
v -0.241845 0.5345464 -0.1
v -0.3357678 0.4777172 -5.308539E-08
v -0.3357678 0.4777172 -0.1
v -0.4184051 0.3626959 -4.842877E-08
v -0.4184051 0.3626959 -0.1
v -0.4748309 0.2498127 -4.237518E-08
v -0.4748309 0.2498127 -0.1
v -0.4945791 0.1542521 -3.445894E-08
v -0.4945791 0.1542521 -0.1
v -0.4880882 0.02120154 -2.514571E-08
v -0.4880882 0.02120154 -0.1
v -0.5021278 -0.1564886 -1.536682E-08
v -0.5021278 -0.1564886 -0.1
v -0.5289083 -0.2974083 -4.656613E-09
v -0.5289083 -0.2974083 -0.1
v -0.5166728 -0.3875064 6.053597E-09
v -0.5166728 -0.3875064 -0.09999999
v -0.4812209 -0.4672962 1.676381E-08
v -0.4812209 -0.4672962 -0.09999998
v -0.4140404 -0.4941105 2.654269E-08
v -0.4140404 -0.4941105 -0.09999996
v -0.3158313 -0.5021633 3.539026E-08
v -0.3158313 -0.5021633 -0.09999996
v -0.2239222 -0.5485001 4.237518E-08
v -0.2239222 -0.5485001 -0.09999995
v -0.1297801 -0.5846942 4.842877E-08
v -0.1297801 -0.5846942 -0.09999995
v 0.0105103 -0.6014429 5.215406E-08
v 0.0105103 -0.6014429 -0.09999994
v 0.141672 -0.6096759 5.401671E-08
v 0.141672 -0.6096759 -0.09999994
v 0.2219511 -0.5761173 5.355105E-08
v 0.2219511 -0.5761173 -0.09999994
v 0.3006362 -0.4976691 5.122274E-08
v 0.3006362 -0.4976691 -0.09999994
v 0.4017655 -0.4410324 4.656613E-08
v 0.4017655 -0.4410324 -0.09999995
v 0.4507571 -0.3859687 4.051253E-08
v 0.4507571 -0.3859687 -0.09999996
v 0.502941 -0.277738 3.259629E-08
v 0.502941 -0.277738 -0.09999996
v 0.537708 -0.1674716 2.328306E-08
v 0.537708 -0.1674716 -0.09999997
v 0.5562119 -0.05632666 1.350418E-08
v 0.5562119 -0.05632666 -0.09999998
v -0.5021278 -0.1564884 0.09999998
v -0.5289083 -0.297408 0.09999999
v -0.5289083 -0.2974083 -4.656613E-09
v -9.126416E-08 2.476202E-07 0.09999999
v -0.5021278 -0.1564886 -1.536682E-08
v -0.5166728 -0.3875064 6.053597E-09
v -0.4880883 0.02120171 0.09999998
v -0.4880882 0.02120154 -2.514571E-08
v -0.5166728 -0.3875062 0.1
v -0.4812209 -0.4672962 1.676381E-08
v -0.4945791 0.1542523 0.09999996
v -0.4945791 0.1542521 -3.445894E-08
v -0.4812209 -0.467296 0.1
v -0.4140404 -0.4941105 2.654269E-08
v -0.4748309 0.2498128 0.09999996
v -0.4748309 0.2498127 -4.237518E-08
v -0.4140404 -0.4941103 0.1
v -0.4184051 0.3626961 0.09999995
v -0.3158314 -0.5021631 0.1
v -0.3158313 -0.5021633 3.539026E-08
v -0.4184051 0.3626959 -4.842877E-08
v -0.2239222 -0.5485001 4.237518E-08
v -0.3357678 0.4777174 0.09999995
v -0.3357678 0.4777172 -5.308539E-08
v -0.2239223 -0.5484999 0.1
v -0.1297801 -0.5846942 4.842877E-08
v -0.2418451 0.5345466 0.09999995
v -0.241845 0.5345464 -5.541369E-08
v -0.1297801 -0.584694 0.1
v 0.0105103 -0.6014429 5.215406E-08
v -0.1285126 0.5789701 0.09999994
v -0.1285125 0.5789699 -5.587935E-08
v 0.01051024 -0.6014427 0.1000001
v -0.04554025 0.558076 0.09999995
v 0.1416719 -0.6096758 0.1000001
v 0.141672 -0.6096759 5.401671E-08
v -0.04554019 0.5580758 -5.401671E-08
v 0.2219511 -0.5761173 5.355105E-08
v 0.07156883 0.4994455 0.09999995
v 0.0715689 0.4994453 -5.029142E-08
v 0.2219511 -0.5761171 0.1000001
v 0.3006362 -0.4976691 5.122274E-08
v 0.1666266 0.4681908 0.09999995
v 0.1666267 0.4681906 -4.423782E-08
v 0.3006361 -0.4976689 0.1000001
v 0.4017655 -0.4410324 4.656613E-08
v 0.258415 0.4676197 0.09999996
v 0.2584151 0.4676195 -3.72529E-08
v 0.4017654 -0.4410322 0.1
v 0.3720541 0.4418772 0.09999996
v 0.450757 -0.3859686 0.1
v 0.4507571 -0.3859687 4.051253E-08
v 0.3720541 0.4418769 -2.840534E-08
v 0.502941 -0.277738 3.259629E-08
v 0.4735678 0.3348433 0.09999998
v 0.4735678 0.3348431 -1.862645E-08
v 0.5029409 -0.2777379 0.1
v 0.537708 -0.1674716 2.328306E-08
v 0.5424932 0.2292426 0.09999999
v 0.5424933 0.2292424 -7.916242E-09
v 0.537708 -0.1674714 0.1
v 0.5562119 -0.05632666 1.350418E-08
v 0.56532 0.09661448 0.1
v 0.56532 0.09661429 2.793968E-09
v 0.5562119 -0.05632647 0.1
vt 0.96875 0
vt 1 1
vt 1 0
vt 0.96875 1
vt 0.9375 0
vt 0.9375 1
vt 0.90625 0
vt 0.90625 1
vt 0.875 0
vt 0.875 1
vt 0.84375 0
vt 0.84375 1
vt 0.8125 0
vt 0.8125 1
vt 0.78125 0
vt 0.78125 1
vt 0.75 0
vt 0.75 1
vt 0.71875 0
vt 0.71875 1
vt 0.6875 0
vt 0.6875 1
vt 0.65625 0
vt 0.65625 1
vt 0.625 0
vt 0.625 1
vt 0.59375 0
vt 0.59375 1
vt 0.5625 0
vt 0.5625 1
vt 0.53125 0
vt 0.53125 1
vt 0.5 0
vt 0.5 1
vt 0.46875 0
vt 0.46875 1
vt 0.4375 0
vt 0.4375 1
vt 0.40625 0
vt 0.40625 1
vt 0.375 0
vt 0.375 1
vt 0.34375 0
vt 0.34375 1
vt 0.3125 0
vt 0.3125 1
vt 0.28125 0
vt 0.28125 1
vt 0.25 0
vt 0.25 1
vt 0.21875 0
vt 0.21875 1
vt 0.1875 0
vt 0.1875 1
vt 0.15625 0
vt 0.15625 1
vt 0.125 0
vt 0.125 1
vt 0.09375 0
vt 0.09375 1
vt 0.0625 0
vt 0.0625 1
vt 0.03125 0
vt 0.03125 1
vt 0 0
vt 0 1
vt 0.707631 -3.203656
vt 0.6091594 -3.203656
vt 0.6091594 -3.203656
vt 0.6583949 -2.703756
vt 0.707631 -3.203656
vt 0.5125796 -3.184445
vt 0.8042108 -3.184445
vt 0.8042108 -3.184445
vt 0.5125796 -3.184445
vt 0.4216038 -3.146762
vt 0.8951865 -3.146762
vt 0.8951865 -3.146762
vt 0.4216038 -3.146762
vt 0.3397275 -3.092054
vt 0.9770628 -3.092054
vt 0.9770628 -3.092054
vt 0.3397275 -3.092054
vt 1.046693 -3.022424
vt 0.2700974 -3.022424
vt 0.2700974 -3.022424
vt 1.046693 -3.022424
vt 0.2153893 -2.940548
vt 1.1014 -2.940547
vt 1.1014 -2.940547
vt 0.2153893 -2.940548
vt 0.1777059 -2.849572
vt 1.139084 -2.849572
vt 1.139084 -2.849572
vt 0.1777059 -2.849572
vt 0.1584951 -2.752992
vt 1.158295 -2.752992
vt 1.158295 -2.752992
vt 0.1584951 -2.752992
vt 1.158295 -2.65452
vt 0.1584951 -2.65452
vt 0.1584951 -2.65452
vt 1.158295 -2.65452
vt 0.177706 -2.55794
vt 1.139084 -2.557941
vt 1.139084 -2.557941
vt 0.177706 -2.55794
vt 0.2153895 -2.466965
vt 1.101401 -2.466966
vt 1.101401 -2.466966
vt 0.2153895 -2.466965
vt 0.2700974 -2.385088
vt 1.046693 -2.385089
vt 1.046693 -2.385089
vt 0.2700974 -2.385088
vt 0.9770628 -2.315459
vt 0.3397275 -2.315458
vt 0.3397275 -2.315458
vt 0.9770628 -2.315459
vt 0.4216038 -2.260751
vt 0.895187 -2.260751
vt 0.895187 -2.260751
vt 0.4216038 -2.260751
vt 0.5125798 -2.223067
vt 0.8042108 -2.223067
vt 0.8042108 -2.223067
vt 0.5125798 -2.223067
vt 0.6091596 -2.203856
vt 0.7076312 -2.203856
vt 0.7076312 -2.203856
vt 0.6091596 -2.203856
vn 0.9984614 0.05545082 0
vn 0.9937092 -0.1119915 0
vn 0.9937092 -0.1119915 0
vn 0.9984614 0.05545072 0
vn 0.9307435 0.3656728 0
vn 0.9307435 0.3656728 0
vn 0.7846889 0.6198899 0
vn 0.7846887 0.6198901 0
vn 0.4945489 0.8691498 0
vn 0.4945487 0.86915 0
vn 0.1142456 0.9934525 0
vn 0.1142456 0.9934525 0
vn 0.1612349 0.9869161 0
vn 0.161235 0.9869161 0
vn 0.3810339 0.924561 0
vn 0.381034 0.924561 0
vn 0.3479922 0.9374974 0
vn 0.3479921 0.9374974 0
vn -0.06339663 0.9979885 0
vn -0.06339671 0.9979885 0
vn -0.4429188 0.8965617 0
vn -0.4429189 0.8965617 0
vn -0.6786801 0.7344341 0
vn -0.6786799 0.7344342 0
vn -0.8560233 0.5169374 0
vn -0.8560232 0.5169375 0
vn -0.9448496 0.3275048 0
vn -0.9448496 0.3275046 0
vn -0.9969969 0.0774428 0
vn -0.9969969 0.07744291 0
vn -0.9998868 0.01505013 0
vn -0.9998868 0.01505028 0
vn -0.9911254 0.1329299 0
vn -0.9911254 0.1329299 0
vn -0.9996512 0.02640975 0
vn -0.9996512 0.02640977 0
vn -0.9620041 -0.2730351 0
vn -0.9620042 -0.273035 0
vn -0.6934171 -0.7205364 0
vn -0.6934175 -0.7205361 0
vn -0.2287449 -0.9734864 0
vn -0.228745 -0.9734864 0
vn -0.2709612 -0.9625902 0
vn -0.2709611 -0.9625902 0
vn -0.4050239 -0.914306 0
vn -0.4050239 -0.9143062 0
vn -0.2405493 -0.9706369 0
vn -0.2405494 -0.9706369 0
vn -0.0906312 -0.9958845 0
vn -0.09063122 -0.9958845 0
vn 0.1658596 -0.9861494 0
vn 0.1658595 -0.9861494 0
vn 0.5562938 -0.8309856 0
vn 0.5562938 -0.8309856 0
vn 0.6029596 -0.7977718 0
vn 0.6029596 -0.7977718 0
vn 0.6265381 -0.7793908 0
vn 0.6265382 -0.7793908 0
vn 0.8319466 -0.5548557 0
vn 0.8319466 -0.5548557 0
vn 0.9296436 -0.36846 0
vn 0.9296437 -0.3684599 0
vn 0.9724671 -0.2330404 0
vn 0.9724671 -0.2330402 0
vn 0.9937092 -0.1119915 0
vn 0.9937092 -0.1119915 0
vn 0 0 1
vn -2.062321E-05 1.443178E-05 1
vn -0.9996512 0.02640975 0
vn 0 0 1
vn -0.9911254 0.1329299 0
vn -0.9620041 -0.2730351 0
vn -2.369122E-05 1.785345E-05 1
vn -0.9998868 0.01505013 0
vn 0 -1.373887E-05 1
vn -0.6934171 -0.7205364 0
vn -2.830476E-05 -1.811982E-05 1
vn -0.9969969 0.0774428 0
vn -4.033559E-05 6.124751E-05 1
vn -0.2287449 -0.9734864 0
vn -1.890957E-05 1.834333E-05 1
vn -0.9448496 0.3275048 0
vn 0 1.251698E-05 1
vn -2.800673E-05 0 1
vn -2.275407E-05 2.838671E-05 1
vn -0.2709612 -0.9625902 0
vn -0.8560233 0.5169374 0
vn -0.4050239 -0.914306 0
vn -5.359202E-05 -2.290308E-05 1
vn -0.6786801 0.7344341 0
vn -3.335997E-05 2.668053E-05 1
vn -0.2405493 -0.9706369 0
vn -3.982335E-05 0 1
vn -0.4429188 0.8965617 0
vn 2.486259E-05 1.672795E-05 1
vn -0.0906312 -0.9958845 0
vn 6.060302E-05 3.530085E-05 1
vn -0.06339663 0.9979885 0
vn -1.329184E-05 2.328597E-05 1
vn -5.00381E-05 0 1
vn -2.264232E-05 1.465902E-05 1
vn 0.1658596 -0.9861494 0
vn 0.3479922 0.9374974 0
vn 0.5562938 -0.8309856 0
vn -4.170835E-05 1.25058E-05 1
vn 0.3810339 0.924561 0
vn 1.367927E-05 0 1
vn 0.6029596 -0.7977718 0
vn -2.688169E-05 0 1
vn 0.1612349 0.9869161 0
vn 1.887232E-05 0 1
vn 0.6265381 -0.7793908 0
vn 3.945827E-05 2.57641E-05 1
vn 0.1142456 0.9934525 0
vn 2.583116E-05 4.934146E-05 1
vn 5.321205E-05 0 1
vn 4.665554E-05 3.443658E-05 1
vn 0.8319466 -0.5548557 0
vn 0.4945489 0.8691498 0
vn 0.9296436 -0.36846 0
vn 3.163144E-05 0 1
vn 0.7846889 0.6198899 0
vn 1.531094E-05 0 1
vn 0.9724671 -0.2330404 0
vn -2.435595E-05 2.049468E-05 1
vn 0.9307435 0.3656728 0
vn 0 2.913922E-05 1
vn 0.9937092 -0.1119915 0
vn 1.425482E-05 5.678087E-05 1
vn 0.9984614 0.05545082 0
vn 2.535642E-05 3.106613E-05 1
g mesh_fauxfluid_splatter_D_0
f 3/3/3 2/2/2 1/1/1
f 2/2/2 4/4/4 1/1/1
f 1/1/1 4/4/4 5/5/5
f 4/4/4 6/6/6 5/5/5
f 5/5/5 6/6/6 7/7/7
f 6/6/6 8/8/8 7/7/7
f 7/7/7 8/8/8 9/9/9
f 8/8/8 10/10/10 9/9/9
f 9/9/9 10/10/10 11/11/11
f 10/10/10 12/12/12 11/11/11
f 11/11/11 12/12/12 13/13/13
f 12/12/12 14/14/14 13/13/13
f 13/13/13 14/14/14 15/15/15
f 14/14/14 16/16/16 15/15/15
f 15/15/15 16/16/16 17/17/17
f 16/16/16 18/18/18 17/17/17
f 17/17/17 18/18/18 19/19/19
f 18/18/18 20/20/20 19/19/19
f 19/19/19 20/20/20 21/21/21
f 20/20/20 22/22/22 21/21/21
f 21/21/21 22/22/22 23/23/23
f 22/22/22 24/24/24 23/23/23
f 23/23/23 24/24/24 25/25/25
f 24/24/24 26/26/26 25/25/25
f 25/25/25 26/26/26 27/27/27
f 26/26/26 28/28/28 27/27/27
f 27/27/27 28/28/28 29/29/29
f 28/28/28 30/30/30 29/29/29
f 29/29/29 30/30/30 31/31/31
f 30/30/30 32/32/32 31/31/31
f 31/31/31 32/32/32 33/33/33
f 32/32/32 34/34/34 33/33/33
f 33/33/33 34/34/34 35/35/35
f 34/34/34 36/36/36 35/35/35
f 35/35/35 36/36/36 37/37/37
f 36/36/36 38/38/38 37/37/37
f 37/37/37 38/38/38 39/39/39
f 38/38/38 40/40/40 39/39/39
f 39/39/39 40/40/40 41/41/41
f 40/40/40 42/42/42 41/41/41
f 41/41/41 42/42/42 43/43/43
f 42/42/42 44/44/44 43/43/43
f 43/43/43 44/44/44 45/45/45
f 44/44/44 46/46/46 45/45/45
f 45/45/45 46/46/46 47/47/47
f 46/46/46 48/48/48 47/47/47
f 47/47/47 48/48/48 49/49/49
f 48/48/48 50/50/50 49/49/49
f 49/49/49 50/50/50 51/51/51
f 50/50/50 52/52/52 51/51/51
f 51/51/51 52/52/52 53/53/53
f 52/52/52 54/54/54 53/53/53
f 53/53/53 54/54/54 55/55/55
f 54/54/54 56/56/56 55/55/55
f 55/55/55 56/56/56 57/57/57
f 56/56/56 58/58/58 57/57/57
f 57/57/57 58/58/58 59/59/59
f 58/58/58 60/60/60 59/59/59
f 59/59/59 60/60/60 61/61/61
f 60/60/60 62/62/62 61/61/61
f 61/61/61 62/62/62 63/63/63
f 62/62/62 64/64/64 63/63/63
f 63/63/63 64/64/64 65/65/65
f 64/64/64 66/66/66 65/65/65
f 69/69/69 68/68/68 67/67/67
f 70/70/70 67/67/67 68/68/68
f 71/71/71 69/69/69 67/67/67
f 69/69/69 72/72/72 68/68/68
f 71/71/71 67/67/67 73/73/73
f 70/70/70 73/73/73 67/67/67
f 74/74/74 71/71/71 73/73/73
f 72/72/72 75/75/75 68/68/68
f 70/70/70 68/68/68 75/75/75
f 72/72/72 76/76/76 75/75/75
f 74/74/74 73/73/73 77/77/77
f 70/70/70 77/77/77 73/73/73
f 78/78/78 74/74/74 77/77/77
f 76/76/76 79/79/79 75/75/75
f 70/70/70 75/75/75 79/79/79
f 76/76/76 80/80/80 79/79/79
f 78/78/78 77/77/77 81/81/81
f 70/70/70 81/81/81 77/77/77
f 82/82/82 78/78/78 81/81/81
f 70/70/70 79/79/79 83/83/83
f 80/80/80 83/83/83 79/79/79
f 70/70/70 84/84/84 81/81/81
f 82/82/82 81/81/81 84/84/84
f 70/70/70 83/83/83 85/85/85
f 80/80/80 86/86/86 83/83/83
f 86/86/86 85/85/85 83/83/83
f 87/87/87 82/82/82 84/84/84
f 86/86/86 88/88/88 85/85/85
f 87/87/87 84/84/84 89/89/89
f 70/70/70 89/89/89 84/84/84
f 90/90/90 87/87/87 89/89/89
f 88/88/88 91/91/91 85/85/85
f 70/70/70 85/85/85 91/91/91
f 88/88/88 92/92/92 91/91/91
f 90/90/90 89/89/89 93/93/93
f 70/70/70 93/93/93 89/89/89
f 94/94/94 90/90/90 93/93/93
f 92/92/92 95/95/95 91/91/91
f 70/70/70 91/91/91 95/95/95
f 92/92/92 96/96/96 95/95/95
f 94/94/94 93/93/93 97/97/97
f 70/70/70 97/97/97 93/93/93
f 98/98/98 94/94/94 97/97/97
f 70/70/70 95/95/95 99/99/99
f 96/96/96 99/99/99 95/95/95
f 70/70/70 100/100/100 97/97/97
f 98/98/98 97/97/97 100/100/100
f 70/70/70 99/99/99 101/101/101
f 96/96/96 102/102/102 99/99/99
f 102/102/102 101/101/101 99/99/99
f 103/103/103 98/98/98 100/100/100
f 102/102/102 104/104/104 101/101/101
f 103/103/103 100/100/100 105/105/105
f 70/70/70 105/105/105 100/100/100
f 106/106/106 103/103/103 105/105/105
f 104/104/104 107/107/107 101/101/101
f 70/70/70 101/101/101 107/107/107
f 104/104/104 108/108/108 107/107/107
f 106/106/106 105/105/105 109/109/109
f 70/70/70 109/109/109 105/105/105
f 110/110/110 106/106/106 109/109/109
f 108/108/108 111/111/111 107/107/107
f 70/70/70 107/107/107 111/111/111
f 108/108/108 112/112/112 111/111/111
f 110/110/110 109/109/109 113/113/113
f 70/70/70 113/113/113 109/109/109
f 114/114/114 110/110/110 113/113/113
f 70/70/70 111/111/111 115/115/115
f 112/112/112 115/115/115 111/111/111
f 70/70/70 116/116/116 113/113/113
f 114/114/114 113/113/113 116/116/116
f 70/70/70 115/115/115 117/117/117
f 112/112/112 118/118/118 115/115/115
f 118/118/118 117/117/117 115/115/115
f 119/119/119 114/114/114 116/116/116
f 118/118/118 120/120/120 117/117/117
f 119/119/119 116/116/116 121/121/121
f 70/70/70 121/121/121 116/116/116
f 122/122/122 119/119/119 121/121/121
f 120/120/120 123/123/123 117/117/117
f 70/70/70 117/117/117 123/123/123
f 120/120/120 124/124/124 123/123/123
f 122/122/122 121/121/121 125/125/125
f 70/70/70 125/125/125 121/121/121
f 126/126/126 122/122/122 125/125/125
f 124/124/124 127/127/127 123/123/123
f 70/70/70 123/123/123 127/127/127
f 124/124/124 128/128/128 127/127/127
f 126/126/126 125/125/125 129/129/129
f 70/70/70 129/129/129 125/125/125
f 130/130/130 126/126/126 129/129/129
f 70/70/70 127/127/127 131/131/131
f 128/128/128 131/131/131 127/127/127
f 70/70/70 131/131/131 129/129/129
f 130/130/130 129/129/129 131/131/131
f 128/128/128 130/130/130 131/131/131
