g mesh_Teleporter_RadialGlow_A
v 6.152426E-08 -1.680231E-06 -0.4641535
v 0.09055191 0.3999983 -0.4552363
v 6.152426E-08 0.3999983 -0.4641549
v 0.09055191 -1.647946E-06 -0.4552349
v 0.1776239 0.3999984 -0.4288233
v 0.1776239 -1.552331E-06 -0.4288219
v 0.2578699 0.3999986 -0.3859309
v 0.2578699 -1.397061E-06 -0.3859295
v 0.3282061 0.3999988 -0.3282075
v 0.3282061 -1.188103E-06 -0.3282061
v 0.3859296 0.399999 -0.2578713
v 0.3859296 -9.334863E-07 -0.2578698
v 0.428822 0.3999994 -0.1776253
v 0.428822 -6.429966E-07 -0.1776239
v 0.4552349 0.3999996 -0.09055332
v 0.4552349 -3.277969E-07 -0.09055188
v 0.4641535 0.4 -1.494456E-06
v 0.4641535 -1.681854E-13 -4.646017E-08
v 0.455235 0.4000003 0.09055034
v 0.455235 3.277966E-07 0.09055179
v 0.428822 0.4000006 0.1776223
v 0.428822 6.429963E-07 0.1776238
v 0.3859296 0.4000009 0.2578684
v 0.3859296 9.334861E-07 0.2578698
v 0.3282061 0.4000012 0.3282046
v 0.3282061 1.188103E-06 0.3282061
v 0.2578699 0.4000014 0.3859281
v 0.2578699 1.397061E-06 0.3859295
v 0.1776238 0.4000015 0.4288205
v 0.1776238 1.552331E-06 0.4288219
v 0.0905518 0.4000016 0.4552335
v 0.0905518 1.647946E-06 0.4552349
v -8.971614E-08 0.4000017 0.4641521
v -8.971614E-08 1.680231E-06 0.4641535
v -0.09055197 0.4000016 0.4552334
v -0.09055197 1.647946E-06 0.4552348
v -0.177624 0.4000015 0.4288203
v -0.177624 1.552331E-06 0.4288218
v -0.25787 0.4000014 0.3859279
v -0.25787 1.39706E-06 0.3859293
v -0.3282062 0.4000012 0.3282044
v -0.3282062 1.188102E-06 0.3282059
v -0.3859296 0.4000009 0.2578681
v -0.3859296 9.334853E-07 0.2578696
v -0.428822 0.4000006 0.177622
v -0.428822 6.429952E-07 0.1776235
v -0.4552349 0.4000003 0.09054999
v -0.4552349 3.277953E-07 0.09055144
v -0.4641534 0.4 -1.9076E-06
v -0.4641534 -1.663761E-12 -4.596038E-07
v -0.4552347 0.3999996 -0.09055378
v -0.4552347 -3.277986E-07 -0.09055234
v -0.4288216 0.3999994 -0.1776258
v -0.4288216 -6.429983E-07 -0.1776243
v -0.3859291 0.399999 -0.2578718
v -0.3859291 -9.334881E-07 -0.2578703
v -0.3282056 0.3999988 -0.3282079
v -0.3282056 -1.188104E-06 -0.3282065
v -0.2578693 0.3999986 -0.3859313
v -0.2578693 -1.397062E-06 -0.3859299
v -0.1776232 0.3999984 -0.4288236
v -0.1776232 -1.552332E-06 -0.4288222
v -0.09055109 0.3999983 -0.4552365
v -0.09055109 -1.647946E-06 -0.455235
v 6.152426E-08 0.3999983 -0.4641549
v 6.152426E-08 -1.680231E-06 -0.4641535
vt 1 -5.960464E-08
vt 0.96875 1
vt 1 1
vt 0.96875 -5.960464E-08
vt 0.9375 1
vt 0.9375 -5.960464E-08
vt 0.90625 1
vt 0.90625 -5.960464E-08
vt 0.875 1
vt 0.875 0
vt 0.84375 1
vt 0.84375 0
vt 0.8125 1
vt 0.8125 0
vt 0.78125 1
vt 0.78125 0
vt 0.75 1
vt 0.75 0
vt 0.71875 1
vt 0.71875 0
vt 0.6875 1
vt 0.6875 0
vt 0.65625 1
vt 0.65625 0
vt 0.6250001 1
vt 0.625 0
vt 0.5937501 1
vt 0.59375 0
vt 0.5625001 1
vt 0.5625 0
vt 0.5312501 1
vt 0.53125 0
vt 0.5 1
vt 0.5 0
vt 0.46875 1
vt 0.46875 0
vt 0.4375 1
vt 0.4375 0
vt 0.40625 1
vt 0.40625 0
vt 0.375 1
vt 0.375 0
vt 0.34375 1
vt 0.34375 0
vt 0.3125 1
vt 0.3125 0
vt 0.28125 1
vt 0.28125 5.960464E-08
vt 0.2500001 1
vt 0.25 5.960464E-08
vt 0.21875 1
vt 0.21875 0
vt 0.1875 1
vt 0.1875 0
vt 0.15625 1
vt 0.15625 0
vt 0.125 1
vt 0.125 0
vt 0.09375 1
vt 0.09374997 0
vt 0.0625 1
vt 0.06249997 0
vt 0.03125 1
vt 0.03124997 0
vt 0 1
vt -5.960464E-08 0
vn 0 0 -1
vn 0.1950772 0 -0.9807879
vn 0 0 -1
vn 0.1950772 0 -0.9807879
vn 0.3826815 0 -0.9238803
vn 0.3826815 0 -0.9238803
vn 0.5555732 0 -0.8314676
vn 0.5555732 0 -0.8314676
vn 0.7071068 0 -0.7071068
vn 0.7071068 0 -0.7071068
vn 0.8314676 0 -0.5555732
vn 0.8314676 0 -0.5555732
vn 0.9238803 0 -0.3826815
vn 0.9238803 0 -0.3826815
vn 0.9807879 0 -0.1950772
vn 0.9807879 0 -0.1950772
vn 1 0 0
vn 1 0 0
vn 0.9807879 0 0.1950772
vn 0.9807879 0 0.1950772
vn 0.9238803 0 0.3826815
vn 0.9238803 0 0.3826815
vn 0.8314676 0 0.5555732
vn 0.8314676 0 0.5555732
vn 0.7071068 0 0.7071068
vn 0.7071068 0 0.7071068
vn 0.5555732 0 0.8314676
vn 0.5555732 0 0.8314676
vn 0.3826815 0 0.9238803
vn 0.3826815 0 0.9238803
vn 0.1950772 0 0.9807879
vn 0.1950772 0 0.9807879
vn 0 0 1
vn 0 0 1
vn -0.1950772 0 0.9807879
vn -0.1950772 0 0.9807879
vn -0.3826815 0 0.9238803
vn -0.3826815 0 0.9238803
vn -0.5555732 0 0.8314676
vn -0.5555732 0 0.8314676
vn -0.7071068 0 0.7071068
vn -0.7071068 0 0.7071068
vn -0.8314676 0 0.5555732
vn -0.8314676 0 0.5555732
vn -0.9238803 0 0.3826815
vn -0.9238803 0 0.3826815
vn -0.9807879 0 0.1950772
vn -0.9807879 0 0.1950772
vn -1 0 0
vn -1 0 0
vn -0.9807879 0 -0.1950772
vn -0.9807879 0 -0.1950772
vn -0.9238803 0 -0.3826815
vn -0.9238803 0 -0.3826815
vn -0.8314676 0 -0.5555732
vn -0.8314676 0 -0.5555732
vn -0.7071068 0 -0.7071068
vn -0.7071068 0 -0.7071068
vn -0.5555732 0 -0.8314676
vn -0.5555732 0 -0.8314676
vn -0.3826815 0 -0.9238803
vn -0.3826815 0 -0.9238803
vn -0.1950772 0 -0.9807879
vn -0.1950772 0 -0.9807879
vn 0 0 -1
vn 0 0 -1
g mesh_Teleporter_RadialGlow_A_0
f 3/3/3 2/2/2 1/1/1
f 2/2/2 4/4/4 1/1/1
f 2/2/2 5/5/5 4/4/4
f 5/5/5 6/6/6 4/4/4
f 5/5/5 7/7/7 6/6/6
f 7/7/7 8/8/8 6/6/6
f 7/7/7 9/9/9 8/8/8
f 9/9/9 10/10/10 8/8/8
f 9/9/9 11/11/11 10/10/10
f 11/11/11 12/12/12 10/10/10
f 11/11/11 13/13/13 12/12/12
f 13/13/13 14/14/14 12/12/12
f 13/13/13 15/15/15 14/14/14
f 15/15/15 16/16/16 14/14/14
f 15/15/15 17/17/17 16/16/16
f 17/17/17 18/18/18 16/16/16
f 17/17/17 19/19/19 18/18/18
f 19/19/19 20/20/20 18/18/18
f 19/19/19 21/21/21 20/20/20
f 21/21/21 22/22/22 20/20/20
f 21/21/21 23/23/23 22/22/22
f 23/23/23 24/24/24 22/22/22
f 23/23/23 25/25/25 24/24/24
f 25/25/25 26/26/26 24/24/24
f 25/25/25 27/27/27 26/26/26
f 27/27/27 28/28/28 26/26/26
f 27/27/27 29/29/29 28/28/28
f 29/29/29 30/30/30 28/28/28
f 29/29/29 31/31/31 30/30/30
f 31/31/31 32/32/32 30/30/30
f 31/31/31 33/33/33 32/32/32
f 33/33/33 34/34/34 32/32/32
f 33/33/33 35/35/35 34/34/34
f 35/35/35 36/36/36 34/34/34
f 35/35/35 37/37/37 36/36/36
f 37/37/37 38/38/38 36/36/36
f 37/37/37 39/39/39 38/38/38
f 39/39/39 40/40/40 38/38/38
f 39/39/39 41/41/41 40/40/40
f 41/41/41 42/42/42 40/40/40
f 41/41/41 43/43/43 42/42/42
f 43/43/43 44/44/44 42/42/42
f 43/43/43 45/45/45 44/44/44
f 45/45/45 46/46/46 44/44/44
f 45/45/45 47/47/47 46/46/46
f 47/47/47 48/48/48 46/46/46
f 47/47/47 49/49/49 48/48/48
f 49/49/49 50/50/50 48/48/48
f 49/49/49 51/51/51 50/50/50
f 51/51/51 52/52/52 50/50/50
f 51/51/51 53/53/53 52/52/52
f 53/53/53 54/54/54 52/52/52
f 53/53/53 55/55/55 54/54/54
f 55/55/55 56/56/56 54/54/54
f 55/55/55 57/57/57 56/56/56
f 57/57/57 58/58/58 56/56/56
f 57/57/57 59/59/59 58/58/58
f 59/59/59 60/60/60 58/58/58
f 59/59/59 61/61/61 60/60/60
f 61/61/61 62/62/62 60/60/60
f 61/61/61 63/63/63 62/62/62
f 63/63/63 64/64/64 62/62/62
f 63/63/63 65/65/65 64/64/64
f 65/65/65 66/66/66 64/64/64
