g mesh_Teleporter_Splash_A
v -1.981724E-08 0.1495057 7.301569E-07
v -0.04143784 0.2083233 -0.3999989
v 8.835492E-10 0.2124046 -0.3999989
v -0.02916713 0.146633 7.327068E-07
v -0.08128325 0.1962363 -0.399999
v -0.05721337 0.1381252 7.053563E-07
v -0.118005 0.1766082 -0.3999991
v -0.08306093 0.1243094 6.480113E-07
v -0.1501918 0.1501931 -0.3999992
v -0.1057165 0.1057165 5.680356E-07
v -0.1766069 0.1180062 -0.3999993
v -0.1243095 0.08306089 4.579023E-07
v -0.1962351 0.08128449 -0.3999996
v -0.1381252 0.05721334 3.399009E-07
v -0.2083221 0.04143912 -0.3999996
v -0.146633 0.02916712 2.065341E-07
v -0.2124033 1.2815E-06 -0.3999999
v -0.1495057 1.496491E-08 6.534913E-08
v -0.2083221 -0.04143655 -0.4000001
v -0.146633 -0.02916709 -7.845054E-08
v -0.1962351 -0.08128193 -0.4000002
v -0.1381252 -0.05721332 -2.188927E-07
v -0.1766069 -0.1180037 -0.4000005
v -0.1243095 -0.08306088 -3.54211E-07
v -0.1501918 -0.1501906 -0.4000006
v -0.1057165 -0.1057165 -4.750457E-07
v -0.1180049 -0.1766057 -0.4000008
v -0.08306091 -0.1243094 -5.738839E-07
v -0.0812832 -0.1962338 -0.4000009
v -0.05721334 -0.1381252 -6.506493E-07
v -0.04143779 -0.2083208 -0.400001
v -0.02916709 -0.146633 -7.127059E-07
v 7.009344E-08 -0.2124021 -0.400001
v 2.889796E-08 -0.1495057 -7.301569E-07
v 0.04143792 -0.2083208 -0.400001
v 0.02916715 -0.1466329 -7.327068E-07
v 0.08128332 -0.1962338 -0.400001
v 0.05721338 -0.1381252 -7.053563E-07
v 0.1180051 -0.1766056 -0.4000009
v 0.08306095 -0.1243094 -6.480113E-07
v 0.1501919 -0.1501905 -0.4000008
v 0.1057165 -0.1057164 -5.680356E-07
v 0.176607 -0.1180036 -0.4000006
v 0.1243095 -0.08306081 -4.579023E-07
v 0.1962352 -0.08128181 -0.4000005
v 0.1381253 -0.05721322 -3.399009E-07
v 0.2083221 -0.0414364 -0.4000003
v 0.146633 -0.02916697 -2.065341E-07
v 0.2124033 1.460314E-06 -0.4
v 0.1495056 1.480403E-07 -6.534831E-08
v 0.208322 0.04143932 -0.3999999
v 0.1466329 0.02916726 7.845055E-08
v 0.196235 0.08128473 -0.3999997
v 0.1381251 0.0572135 2.188927E-07
v 0.1766068 0.1180064 -0.3999994
v 0.1243093 0.08306105 3.54211E-07
v 0.1501916 0.1501933 -0.3999994
v 0.1057163 0.1057166 4.750457E-07
v 0.1180047 0.1766083 -0.3999992
v 0.08306071 0.1243095 5.738839E-07
v 0.08128296 0.1962365 -0.3999991
v 0.05721312 0.1381253 6.506493E-07
v 0.04143752 0.2083234 -0.3999989
v 0.02916687 0.146633 7.12706E-07
v 8.835492E-10 0.2124046 -0.3999989
v -1.981724E-08 0.1495057 7.301569E-07
vt 1 -5.960464E-08
vt 0.96875 1
vt 1 1
vt 0.96875 -5.960464E-08
vt 0.9375 1
vt 0.9375 -5.960464E-08
vt 0.90625 1
vt 0.90625 -5.960464E-08
vt 0.875 1
vt 0.875 0
vt 0.84375 1
vt 0.84375 0
vt 0.8125 1
vt 0.8125 0
vt 0.78125 1
vt 0.78125 0
vt 0.75 1
vt 0.75 0
vt 0.71875 1
vt 0.71875 0
vt 0.6875 1
vt 0.6875 0
vt 0.65625 1
vt 0.65625 0
vt 0.6250001 1
vt 0.625 0
vt 0.5937501 1
vt 0.59375 0
vt 0.5625001 1
vt 0.5625 0
vt 0.5312501 1
vt 0.53125 0
vt 0.5 1
vt 0.5 0
vt 0.46875 1
vt 0.46875 0
vt 0.4375 1
vt 0.4375 0
vt 0.40625 1
vt 0.40625 0
vt 0.375 1
vt 0.375 0
vt 0.34375 1
vt 0.34375 0
vt 0.3125 1
vt 0.3125 0
vt 0.28125 1
vt 0.28125 5.960464E-08
vt 0.2500001 1
vt 0.25 5.960464E-08
vt 0.21875 1
vt 0.21875 0
vt 0.1875 1
vt 0.1875 0
vt 0.15625 1
vt 0.15625 0
vt 0.125 1
vt 0.125 0
vt 0.09375 1
vt 0.09374997 0
vt 0.0625 1
vt 0.06249997 0
vt 0.03125 1
vt 0.03124997 0
vt 0 1
vt -5.960464E-08 0
vn 0 0.9878657 0.1553106
vn -0.1926975 0.9688891 0.1553116
vn 0 0.9878657 0.1553106
vn -0.1926975 0.9688891 0.1553116
vn -0.3780383 0.9126695 0.155311
vn -0.3780383 0.9126695 0.155311
vn -0.5488212 0.8213853 0.1553106
vn -0.5488212 0.8213853 0.1553106
vn -0.6985263 0.6985263 0.1553128
vn -0.6985263 0.6985263 0.1553128
vn -0.8213853 0.5488212 0.1553106
vn -0.8213853 0.5488212 0.1553106
vn -0.9126695 0.3780383 0.155311
vn -0.9126695 0.3780383 0.155311
vn -0.9688891 0.1926975 0.1553116
vn -0.9688891 0.1926975 0.1553116
vn -0.9878657 0 0.1553106
vn -0.9878657 0 0.1553106
vn -0.9688891 -0.1926975 0.1553116
vn -0.9688891 -0.1926975 0.1553116
vn -0.9126695 -0.3780383 0.155311
vn -0.9126695 -0.3780383 0.155311
vn -0.8213853 -0.5488212 0.1553106
vn -0.8213853 -0.5488212 0.1553106
vn -0.6985263 -0.6985263 0.1553128
vn -0.6985263 -0.6985263 0.1553128
vn -0.5488212 -0.8213853 0.1553106
vn -0.5488212 -0.8213853 0.1553106
vn -0.3780383 -0.9126695 0.155311
vn -0.3780383 -0.9126695 0.155311
vn -0.1926975 -0.9688891 0.1553116
vn -0.1926975 -0.9688891 0.1553116
vn 0 -0.9878657 0.1553106
vn 0 -0.9878657 0.1553106
vn 0.1926975 -0.9688891 0.1553116
vn 0.1926975 -0.9688891 0.1553116
vn 0.3780383 -0.9126695 0.155311
vn 0.3780383 -0.9126695 0.155311
vn 0.5488212 -0.8213853 0.1553106
vn 0.5488212 -0.8213853 0.1553106
vn 0.6985263 -0.6985263 0.1553128
vn 0.6985263 -0.6985263 0.1553128
vn 0.8213853 -0.5488212 0.1553106
vn 0.8213853 -0.5488212 0.1553106
vn 0.9126695 -0.3780383 0.155311
vn 0.9126695 -0.3780383 0.155311
vn 0.9688891 -0.1926975 0.1553116
vn 0.9688891 -0.1926975 0.1553116
vn 0.9878657 0 0.1553106
vn 0.9878657 0 0.1553106
vn 0.9688891 0.1926975 0.1553116
vn 0.9688891 0.1926975 0.1553116
vn 0.9126695 0.3780383 0.155311
vn 0.9126695 0.3780383 0.155311
vn 0.8213853 0.5488212 0.1553106
vn 0.8213853 0.5488212 0.1553106
vn 0.6985263 0.6985263 0.1553128
vn 0.6985263 0.6985263 0.1553128
vn 0.5488212 0.8213853 0.1553106
vn 0.5488212 0.8213853 0.1553106
vn 0.3780383 0.9126695 0.155311
vn 0.3780383 0.9126695 0.155311
vn 0.1926975 0.9688891 0.1553116
vn 0.1926975 0.9688891 0.1553116
vn 0 0.9878657 0.1553106
vn 0 0.9878657 0.1553106
g mesh_Teleporter_Splash_A_0
f 3/3/3 2/2/2 1/1/1
f 2/2/2 4/4/4 1/1/1
f 2/2/2 5/5/5 4/4/4
f 5/5/5 6/6/6 4/4/4
f 5/5/5 7/7/7 6/6/6
f 7/7/7 8/8/8 6/6/6
f 7/7/7 9/9/9 8/8/8
f 9/9/9 10/10/10 8/8/8
f 9/9/9 11/11/11 10/10/10
f 11/11/11 12/12/12 10/10/10
f 11/11/11 13/13/13 12/12/12
f 13/13/13 14/14/14 12/12/12
f 13/13/13 15/15/15 14/14/14
f 15/15/15 16/16/16 14/14/14
f 15/15/15 17/17/17 16/16/16
f 17/17/17 18/18/18 16/16/16
f 17/17/17 19/19/19 18/18/18
f 19/19/19 20/20/20 18/18/18
f 19/19/19 21/21/21 20/20/20
f 21/21/21 22/22/22 20/20/20
f 21/21/21 23/23/23 22/22/22
f 23/23/23 24/24/24 22/22/22
f 23/23/23 25/25/25 24/24/24
f 25/25/25 26/26/26 24/24/24
f 25/25/25 27/27/27 26/26/26
f 27/27/27 28/28/28 26/26/26
f 27/27/27 29/29/29 28/28/28
f 29/29/29 30/30/30 28/28/28
f 29/29/29 31/31/31 30/30/30
f 31/31/31 32/32/32 30/30/30
f 31/31/31 33/33/33 32/32/32
f 33/33/33 34/34/34 32/32/32
f 33/33/33 35/35/35 34/34/34
f 35/35/35 36/36/36 34/34/34
f 35/35/35 37/37/37 36/36/36
f 37/37/37 38/38/38 36/36/36
f 37/37/37 39/39/39 38/38/38
f 39/39/39 40/40/40 38/38/38
f 39/39/39 41/41/41 40/40/40
f 41/41/41 42/42/42 40/40/40
f 41/41/41 43/43/43 42/42/42
f 43/43/43 44/44/44 42/42/42
f 43/43/43 45/45/45 44/44/44
f 45/45/45 46/46/46 44/44/44
f 45/45/45 47/47/47 46/46/46
f 47/47/47 48/48/48 46/46/46
f 47/47/47 49/49/49 48/48/48
f 49/49/49 50/50/50 48/48/48
f 49/49/49 51/51/51 50/50/50
f 51/51/51 52/52/52 50/50/50
f 51/51/51 53/53/53 52/52/52
f 53/53/53 54/54/54 52/52/52
f 53/53/53 55/55/55 54/54/54
f 55/55/55 56/56/56 54/54/54
f 55/55/55 57/57/57 56/56/56
f 57/57/57 58/58/58 56/56/56
f 57/57/57 59/59/59 58/58/58
f 59/59/59 60/60/60 58/58/58
f 59/59/59 61/61/61 60/60/60
f 61/61/61 62/62/62 60/60/60
f 61/61/61 63/63/63 62/62/62
f 63/63/63 64/64/64 62/62/62
f 63/63/63 65/65/65 64/64/64
f 65/65/65 66/66/66 64/64/64
