g mesh_StencilLighting_DecalMesh_Fill_A
v -0.4999999 2.662674E-07 0.7071068
v -0.5000001 -0.7071068 2.662674E-07
v -0.5000001 -1.136795E-07 -0.7071066
v -0.4999999 0.7071068 -1.136795E-07
v -0.5000001 -0.7071068 2.662674E-07
v 0.4999999 -0.7071068 1.136795E-07
v 0.4999999 -2.662674E-07 -0.7071068
v -0.5000001 -1.136795E-07 -0.7071066
v 0.4999999 -0.7071068 1.136795E-07
v 0.5000001 1.136795E-07 0.7071066
v 0.5000001 0.7071068 -2.662674E-07
v 0.4999999 -2.662674E-07 -0.7071068
v 0.5000001 1.136795E-07 0.7071066
v -0.4999999 2.662674E-07 0.7071068
v -0.4999999 0.7071068 -1.136795E-07
v 0.5000001 0.7071068 -2.662674E-07
v -0.4999999 0.7071068 -1.136795E-07
v -0.5000001 -1.136795E-07 -0.7071066
v 0.4999999 -2.662674E-07 -0.7071068
v 0.5000001 0.7071068 -2.662674E-07
v 0.5000001 1.136795E-07 0.7071066
v 0.4999999 -0.7071068 1.136795E-07
v -0.5000001 -0.7071068 2.662674E-07
v -0.4999999 2.662674E-07 0.7071068
vt 0 0
vt 0 1
vt 1 1
vt 1 0
vt 0 0
vt 0 1
vt 1 1
vt 1 0
vt 0 0
vt 0 1
vt 1 1
vt 1 0
vt 0 0
vt 0 1
vt 1 1
vt 1 0
vt 0 0
vt 0 1
vt 1 1
vt 1 0
vt 0 0
vt 0 1
vt 1 1
vt 1 0
vn -1 0 0
vn -1 0 0
vn -1 0 0
vn -1 0 0
vn 0 -0.7071069 -0.7071066
vn 0 -0.7071069 -0.7071066
vn 0 -0.7071069 -0.7071066
vn 0 -0.7071068 -0.7071066
vn 1 0 0
vn 1 0 0
vn 1 0 0
vn 1 0 0
vn 0 0.7071069 0.7071066
vn 0 0.7071069 0.7071066
vn 0 0.7071069 0.7071066
vn 0 0.7071068 0.7071066
vn 0 0.7071065 -0.707107
vn 0 0.7071065 -0.7071069
vn 0 0.7071065 -0.707107
vn 0 0.7071065 -0.707107
vn 0 -0.7071065 0.707107
vn 0 -0.7071065 0.7071069
vn 0 -0.7071065 0.707107
vn 0 -0.7071065 0.707107
g mesh_StencilLighting_DecalMesh_Fill_A_0
f 3/3/3 2/2/2 1/1/1
f 4/4/4 3/3/3 1/1/1
f 7/7/7 6/6/6 5/5/5
f 8/8/8 7/7/7 5/5/5
f 11/11/11 10/10/10 9/9/9
f 12/12/12 11/11/11 9/9/9
f 15/15/15 14/14/14 13/13/13
f 16/16/16 15/15/15 13/13/13
f 19/19/19 18/18/18 17/17/17
f 20/20/20 19/19/19 17/17/17
f 23/23/23 22/22/22 21/21/21
f 24/24/24 23/23/23 21/21/21
