g mesh_Shockwave_A
v -6.18172E-13 0.6373491 -0.1998224
v 0.1243408 0.6251026 -0.1998223
v 0.1072942 0.5394053 0.1998181
v -5.343565E-13 0.549973 0.1998181
v 0.1243408 0.6251026 -0.1998223
v 0.2439032 0.5888337 -0.1998222
v 0.2104653 0.5081088 0.1998183
v 0.1072942 0.5394053 0.1998181
v 0.2439032 0.5888337 -0.1998222
v 0.3540926 0.5299363 -0.199822
v 0.3055482 0.4572859 0.1998184
v 0.2104653 0.5081088 0.1998183
v 0.3540926 0.5299363 -0.199822
v 0.4506744 0.4506737 -0.1998217
v 0.3888891 0.3888898 0.1998187
v 0.3055482 0.4572859 0.1998184
v 0.4506744 0.4506737 -0.1998217
v 0.529937 0.3540919 -0.1998214
v 0.4572852 0.3055489 0.199819
v 0.3888891 0.3888898 0.1998187
v 0.529937 0.3540919 -0.1998214
v 0.5888345 0.2439025 -0.199821
v 0.5081081 0.210466 0.1998193
v 0.4572852 0.3055489 0.199819
v 0.5888345 0.2439025 -0.199821
v 0.6251034 0.1243401 -0.1998205
v 0.5394046 0.107295 0.1998197
v 0.5081081 0.210466 0.1998193
v 0.6251034 0.1243401 -0.1998205
v 0.6373498 -6.664937E-07 -0.1998201
v 0.5499722 7.561341E-07 0.1998201
v 0.5394046 0.107295 0.1998197
v 0.6373498 -6.664937E-07 -0.1998201
v 0.6251034 -0.1243414 -0.1998196
v 0.5394047 -0.1072935 0.1998205
v 0.5499722 7.561341E-07 0.1998201
v 0.6251034 -0.1243414 -0.1998196
v 0.5888345 -0.2439038 -0.1998192
v 0.5081081 -0.2104644 0.1998208
v 0.5394047 -0.1072935 0.1998205
v 0.5888345 -0.2439038 -0.1998192
v 0.529937 -0.3540933 -0.1998188
v 0.4572852 -0.3055474 0.1998212
v 0.5081081 -0.2104644 0.1998208
v 0.529937 -0.3540933 -0.1998188
v 0.4506744 -0.4506752 -0.1998185
v 0.3888891 -0.3888884 0.1998215
v 0.4572852 -0.3055474 0.1998212
v 0.4506744 -0.4506752 -0.1998185
v 0.3540926 -0.5299377 -0.1998182
v 0.3055482 -0.4572845 0.1998217
v 0.3888891 -0.3888884 0.1998215
v 0.3540926 -0.5299377 -0.1998182
v 0.2439031 -0.5888352 -0.199818
v 0.2104652 -0.5081074 0.1998219
v 0.3055482 -0.4572845 0.1998217
v 0.2439031 -0.5888352 -0.199818
v 0.1243406 -0.6251041 -0.1998179
v 0.1072941 -0.539404 0.199822
v 0.2104652 -0.5081074 0.1998219
v 0.1243406 -0.6251041 -0.1998179
v -2.076756E-07 -0.6373506 -0.1998178
v -1.792042E-07 -0.5499715 0.199822
v 0.1072941 -0.539404 0.199822
v -2.076756E-07 -0.6373506 -0.1998178
v -0.124341 -0.625104 -0.1998179
v -0.1072945 -0.5394039 0.199822
v -1.792042E-07 -0.5499715 0.199822
v -0.124341 -0.625104 -0.1998179
v -0.2439035 -0.5888351 -0.199818
v -0.2104655 -0.5081072 0.1998219
v -0.1072945 -0.5394039 0.199822
v -0.2439035 -0.5888351 -0.199818
v -0.3540929 -0.5299376 -0.1998182
v -0.3055485 -0.4572843 0.1998217
v -0.2104655 -0.5081072 0.1998219
v -0.3540929 -0.5299376 -0.1998182
v -0.4506747 -0.4506749 -0.1998185
v -0.3888894 -0.3888882 0.1998215
v -0.3055485 -0.4572843 0.1998217
v -0.4506747 -0.4506749 -0.1998185
v -0.5299373 -0.354093 -0.1998188
v -0.4572854 -0.3055472 0.1998212
v -0.3888894 -0.3888882 0.1998215
v -0.5299373 -0.354093 -0.1998188
v -0.5888347 -0.2439035 -0.1998192
v -0.5081083 -0.2104641 0.1998208
v -0.4572854 -0.3055472 0.1998212
v -0.5888347 -0.2439035 -0.1998192
v -0.6251035 -0.124341 -0.1998196
v -0.5394047 -0.1072931 0.1998205
v -0.5081083 -0.2104641 0.1998208
v -0.6251035 -0.124341 -0.1998196
v -0.6373498 -9.918777E-08 -0.1998201
v -0.5499722 1.245665E-06 0.1998201
v -0.5394047 -0.1072931 0.1998205
v -0.6373498 -9.918777E-08 -0.1998201
v -0.6251032 0.1243407 -0.1998205
v -0.5394045 0.1072955 0.1998197
v -0.5499722 1.245665E-06 0.1998201
v -0.6251032 0.1243407 -0.1998205
v -0.5888342 0.2439032 -0.199821
v -0.5081078 0.2104665 0.1998193
v -0.5394045 0.1072955 0.1998197
v -0.5888342 0.2439032 -0.199821
v -0.5299366 0.3540926 -0.1998214
v -0.4572848 0.3055495 0.199819
v -0.5081078 0.2104665 0.1998193
v -0.5299366 0.3540926 -0.1998214
v -0.4506739 0.4506743 -0.1998217
v -0.3888886 0.3888903 0.1998187
v -0.4572848 0.3055495 0.199819
v -0.4506739 0.4506743 -0.1998217
v -0.3540919 0.5299368 -0.199822
v -0.3055476 0.4572863 0.1998184
v -0.3888886 0.3888903 0.1998187
v -0.3540919 0.5299368 -0.199822
v -0.2439024 0.5888341 -0.1998222
v -0.2104645 0.5081091 0.1998183
v -0.3055476 0.4572863 0.1998184
v -0.2439024 0.5888341 -0.1998222
v -0.1243398 0.6251028 -0.1998223
v -0.1072934 0.5394055 0.1998181
v -0.2104645 0.5081091 0.1998183
v -0.1243398 0.6251028 -0.1998223
v -6.18172E-13 0.6373491 -0.1998224
v -5.343565E-13 0.549973 0.1998181
v -0.1072934 0.5394055 0.1998181
vt -0.0001773834 1
vt 0.0310725 1
vt 0.0310725 0
vt -0.0001776218 0
vt 0.0310725 1
vt 0.0623225 1
vt 0.0623225 0
vt 0.0310725 0
vt 0.0623225 1
vt 0.0935725 1
vt 0.0935725 0
vt 0.0623225 0
vt 0.0935725 1
vt 0.1248225 1
vt 0.1248225 0
vt 0.0935725 0
vt 0.1248225 1
vt 0.1560725 1
vt 0.1560725 0
vt 0.1248225 0
vt 0.1560725 1
vt 0.1873225 1
vt 0.1873225 0
vt 0.1560725 0
vt 0.1873225 1
vt 0.2185725 1
vt 0.2185725 0
vt 0.1873225 0
vt 0.2185725 1
vt 0.2498225 1
vt 0.2498225 0
vt 0.2185725 0
vt 0.2498225 1
vt 0.2810726 1
vt 0.2810724 0
vt 0.2498225 0
vt 0.2810726 1
vt 0.3123226 1
vt 0.3123224 0
vt 0.2810724 0
vt 0.3123226 1
vt 0.3435726 1
vt 0.3435724 0
vt 0.3123224 0
vt 0.3435726 1
vt 0.3748226 1
vt 0.3748224 0
vt 0.3435724 0
vt 0.3748226 1
vt 0.4060726 1
vt 0.4060724 0
vt 0.3748224 0
vt 0.4060726 1
vt 0.4373226 1
vt 0.4373224 0
vt 0.4060724 0
vt 0.4373226 1
vt 0.4685726 1
vt 0.4685724 0
vt 0.4373224 0
vt 0.4685726 1
vt 0.4998225 1
vt 0.4998225 0
vt 0.4685724 0
vt 0.4998225 1
vt 0.5310726 1
vt 0.5310724 0
vt 0.4998225 0
vt 0.5310726 1
vt 0.5623226 1
vt 0.5623224 0
vt 0.5310724 0
vt 0.5623226 1
vt 0.5935726 1
vt 0.5935724 0
vt 0.5623224 0
vt 0.5935726 1
vt 0.6248226 1
vt 0.6248224 0
vt 0.5935724 0
vt 0.6248226 1
vt 0.6560726 1
vt 0.6560724 0
vt 0.6248224 0
vt 0.6560726 1
vt 0.6873226 1
vt 0.6873224 0
vt 0.6560724 0
vt 0.6873226 1
vt 0.7185726 1
vt 0.7185724 0
vt 0.6873224 0
vt 0.7185726 1
vt 0.7498226 1
vt 0.7498224 0
vt 0.7185724 0
vt 0.7498226 1
vt 0.7810725 1
vt 0.7810725 0
vt 0.7498224 0
vt 0.7810725 1
vt 0.8123225 1
vt 0.8123225 0
vt 0.7810725 0
vt 0.8123225 1
vt 0.8435725 1
vt 0.8435725 0
vt 0.8123225 0
vt 0.8435725 1
vt 0.8748225 1
vt 0.8748225 0
vt 0.8435725 0
vt 0.8748225 1
vt 0.9060725 1
vt 0.9060725 0
vt 0.8748225 0
vt 0.9060725 1
vt 0.9373225 1
vt 0.9373225 0
vt 0.9060725 0
vt 0.9373225 1
vt 0.9685725 1
vt 0.9685725 0
vt 0.9373225 0
vt 0.9685725 1
vt 0.9998225 1
vt 0.9998225 0
vt 0.9685725 0
vn 0.09577627 0.972432 0.2126095
vn 0.09577627 0.972432 0.2126095
vn 0.09577627 0.972432 0.2126095
vn 0.09577627 0.972432 0.2126095
vn 0.2836477 0.9350622 0.2126098
vn 0.2836477 0.9350622 0.2126098
vn 0.2836477 0.9350622 0.2126098
vn 0.2836477 0.9350622 0.2126098
vn 0.4606189 0.8617582 0.2126101
vn 0.4606189 0.8617582 0.2126101
vn 0.4606189 0.8617582 0.2126101
vn 0.4606189 0.8617582 0.2126101
vn 0.6198885 0.7553377 0.2126106
vn 0.6198885 0.7553377 0.2126106
vn 0.6198885 0.7553377 0.2126106
vn 0.6198885 0.7553377 0.2126106
vn 0.7553371 0.6198891 0.212611
vn 0.7553371 0.6198891 0.212611
vn 0.7553371 0.6198891 0.212611
vn 0.7553371 0.6198891 0.212611
vn 0.8617573 0.46062 0.2126115
vn 0.8617573 0.46062 0.2126115
vn 0.8617573 0.46062 0.2126115
vn 0.8617573 0.46062 0.2126115
vn 0.9350613 0.2836487 0.2126121
vn 0.9350613 0.2836487 0.2126121
vn 0.9350613 0.2836487 0.2126121
vn 0.9350613 0.2836487 0.2126121
vn 0.9724312 0.09577719 0.2126128
vn 0.9724312 0.09577719 0.2126128
vn 0.9724312 0.09577719 0.2126128
vn 0.9724312 0.09577719 0.2126128
vn 0.9724314 -0.095775 0.2126135
vn 0.9724314 -0.095775 0.2126135
vn 0.9724314 -0.095775 0.2126135
vn 0.9724314 -0.095775 0.2126135
vn 0.9350612 -0.2836471 0.2126142
vn 0.9350612 -0.2836471 0.2126142
vn 0.9350612 -0.2836471 0.2126142
vn 0.9350612 -0.2836471 0.2126142
vn 0.8617575 -0.4606181 0.2126149
vn 0.8617575 -0.4606181 0.2126149
vn 0.8617575 -0.4606181 0.2126149
vn 0.8617575 -0.4606181 0.2126149
vn 0.7553371 -0.6198876 0.2126154
vn 0.7553371 -0.6198876 0.2126154
vn 0.7553371 -0.6198876 0.2126154
vn 0.7553371 -0.6198876 0.2126154
vn 0.6198884 -0.7553362 0.2126159
vn 0.6198884 -0.7553362 0.2126159
vn 0.6198884 -0.7553362 0.2126159
vn 0.6198884 -0.7553362 0.2126159
vn 0.4606189 -0.8617566 0.2126163
vn 0.4606189 -0.8617566 0.2126163
vn 0.4606189 -0.8617566 0.2126163
vn 0.4606189 -0.8617566 0.2126163
vn 0.2836478 -0.9350605 0.2126165
vn 0.2836478 -0.9350605 0.2126165
vn 0.2836478 -0.9350605 0.2126165
vn 0.2836478 -0.9350605 0.2126165
vn 0.09577574 -0.9724305 0.2126167
vn 0.09577574 -0.9724305 0.2126167
vn 0.09577574 -0.9724305 0.2126167
vn 0.09577574 -0.9724305 0.2126167
vn -0.09577674 -0.9724305 0.2126164
vn -0.09577674 -0.9724305 0.2126164
vn -0.09577674 -0.9724305 0.2126164
vn -0.09577674 -0.9724305 0.2126164
vn -0.2836481 -0.9350604 0.2126164
vn -0.2836481 -0.9350604 0.2126164
vn -0.2836481 -0.9350604 0.2126164
vn -0.2836481 -0.9350604 0.2126164
vn -0.4606192 -0.8617564 0.2126163
vn -0.4606192 -0.8617564 0.2126163
vn -0.4606192 -0.8617564 0.2126163
vn -0.4606192 -0.8617564 0.2126163
vn -0.619889 -0.7553359 0.2126158
vn -0.619889 -0.7553359 0.2126158
vn -0.619889 -0.7553359 0.2126158
vn -0.619889 -0.7553359 0.2126158
vn -0.7553375 -0.6198871 0.2126153
vn -0.7553375 -0.6198871 0.2126153
vn -0.7553375 -0.6198871 0.2126153
vn -0.7553375 -0.6198871 0.2126153
vn -0.8617578 -0.4606174 0.2126148
vn -0.8617578 -0.4606174 0.2126148
vn -0.8617578 -0.4606174 0.2126148
vn -0.8617578 -0.4606174 0.2126148
vn -0.9350615 -0.283646 0.2126142
vn -0.9350615 -0.283646 0.2126142
vn -0.9350615 -0.283646 0.2126142
vn -0.9350615 -0.283646 0.2126142
vn -0.9724314 -0.09577463 0.2126134
vn -0.9724314 -0.09577463 0.2126134
vn -0.9724314 -0.09577463 0.2126134
vn -0.9724314 -0.09577463 0.2126134
vn -0.9724311 0.09577806 0.2126128
vn -0.9724311 0.09577806 0.2126128
vn -0.9724311 0.09577806 0.2126128
vn -0.9724311 0.09577806 0.2126128
vn -0.9350609 0.2836497 0.2126122
vn -0.9350609 0.2836497 0.2126122
vn -0.9350609 0.2836497 0.2126122
vn -0.9350609 0.2836497 0.2126122
vn -0.861757 0.4606206 0.2126115
vn -0.861757 0.4606206 0.2126115
vn -0.861757 0.4606206 0.2126115
vn -0.861757 0.4606206 0.2126115
vn -0.755336 0.6198903 0.212611
vn -0.755336 0.6198903 0.212611
vn -0.755336 0.6198903 0.212611
vn -0.755336 0.6198903 0.212611
vn -0.6198875 0.7553385 0.2126105
vn -0.6198875 0.7553385 0.2126105
vn -0.6198875 0.7553385 0.2126105
vn -0.6198875 0.7553385 0.2126105
vn -0.4606177 0.8617588 0.2126099
vn -0.4606177 0.8617588 0.2126099
vn -0.4606177 0.8617588 0.2126099
vn -0.4606177 0.8617588 0.2126099
vn -0.2836463 0.9350625 0.2126097
vn -0.2836463 0.9350625 0.2126097
vn -0.2836463 0.9350625 0.2126097
vn -0.2836463 0.9350625 0.2126097
vn -0.09577551 0.9724321 0.2126095
vn -0.09577551 0.9724321 0.2126095
vn -0.09577551 0.9724321 0.2126095
vn -0.09577551 0.9724321 0.2126095
g mesh_Shockwave_A_0
f 3/3/3 2/2/2 1/1/1
f 4/4/4 3/3/3 1/1/1
f 7/7/7 6/6/6 5/5/5
f 8/8/8 7/7/7 5/5/5
f 11/11/11 10/10/10 9/9/9
f 12/12/12 11/11/11 9/9/9
f 15/15/15 14/14/14 13/13/13
f 16/16/16 15/15/15 13/13/13
f 19/19/19 18/18/18 17/17/17
f 20/20/20 19/19/19 17/17/17
f 23/23/23 22/22/22 21/21/21
f 24/24/24 23/23/23 21/21/21
f 27/27/27 26/26/26 25/25/25
f 28/28/28 27/27/27 25/25/25
f 31/31/31 30/30/30 29/29/29
f 32/32/32 31/31/31 29/29/29
f 35/35/35 34/34/34 33/33/33
f 36/36/36 35/35/35 33/33/33
f 39/39/39 38/38/38 37/37/37
f 40/40/40 39/39/39 37/37/37
f 43/43/43 42/42/42 41/41/41
f 44/44/44 43/43/43 41/41/41
f 47/47/47 46/46/46 45/45/45
f 48/48/48 47/47/47 45/45/45
f 51/51/51 50/50/50 49/49/49
f 52/52/52 51/51/51 49/49/49
f 55/55/55 54/54/54 53/53/53
f 56/56/56 55/55/55 53/53/53
f 59/59/59 58/58/58 57/57/57
f 60/60/60 59/59/59 57/57/57
f 63/63/63 62/62/62 61/61/61
f 64/64/64 63/63/63 61/61/61
f 67/67/67 66/66/66 65/65/65
f 68/68/68 67/67/67 65/65/65
f 71/71/71 70/70/70 69/69/69
f 72/72/72 71/71/71 69/69/69
f 75/75/75 74/74/74 73/73/73
f 76/76/76 75/75/75 73/73/73
f 79/79/79 78/78/78 77/77/77
f 80/80/80 79/79/79 77/77/77
f 83/83/83 82/82/82 81/81/81
f 84/84/84 83/83/83 81/81/81
f 87/87/87 86/86/86 85/85/85
f 88/88/88 87/87/87 85/85/85
f 91/91/91 90/90/90 89/89/89
f 92/92/92 91/91/91 89/89/89
f 95/95/95 94/94/94 93/93/93
f 96/96/96 95/95/95 93/93/93
f 99/99/99 98/98/98 97/97/97
f 100/100/100 99/99/99 97/97/97
f 103/103/103 102/102/102 101/101/101
f 104/104/104 103/103/103 101/101/101
f 107/107/107 106/106/106 105/105/105
f 108/108/108 107/107/107 105/105/105
f 111/111/111 110/110/110 109/109/109
f 112/112/112 111/111/111 109/109/109
f 115/115/115 114/114/114 113/113/113
f 116/116/116 115/115/115 113/113/113
f 119/119/119 118/118/118 117/117/117
f 120/120/120 119/119/119 117/117/117
f 123/123/123 122/122/122 121/121/121
f 124/124/124 123/123/123 121/121/121
f 127/127/127 126/126/126 125/125/125
f 128/128/128 127/127/127 125/125/125
