g pb_Mesh3041592
v -0.2 0 -1.78814E-08
v -1.8 0 -1.609326E-07
v -0.2000008 0.6607236 -5.801336E-08
v -1.800003 0.6607236 -2.386006E-07
v -2 0 -0.2000002
v -2 0 -1.8
v -2.000001 0.6607236 -0.2000003
v -2.000001 0.6607236 -1.8
v -1.8 0 -2
v -0.2 0 -2
v -1.800003 0.6607236 -2
v -0.2000008 0.6607236 -2
v 0 0 -1.8
v 0 0 -0.2
v -3.069641E-06 0.6607236 -1.8
v -3.069641E-06 0.6607236 -0.2
v 0 0 -1.8
v -0.2000008 0.6607236 -2
v -0.2 0 -2
v 0 0 -1.8
v -3.069641E-06 0.6607236 -1.8
v -0.2000008 0.6607236 -2
v -1.8 0 -2
v -2.000001 0.6607236 -1.8
v -2 0 -1.8
v -1.8 0 -2
v -1.800003 0.6607236 -2
v -2.000001 0.6607236 -1.8
v -3.069641E-06 0.6607236 -0.2
v -0.2 0 -1.78814E-08
v -0.2000008 0.6607236 -5.801336E-08
v -3.069641E-06 0.6607236 -0.2
v 0 0 -0.2
v -0.2 0 -1.78814E-08
v -2 0 -0.2000002
v -1.800003 0.6607236 -2.386006E-07
v -1.8 0 -1.609326E-07
v -2 0 -0.2000002
v -2.000001 0.6607236 -0.2000003
v -1.800003 0.6607236 -2.386006E-07
v -0.2 0 -1.78814E-08
v 0 0 -0.2
v -1.8 0 -1.609326E-07
v 0 0 -1.8
v -0.2 0 -2
v -2 0 -0.2000002
v -2 0 -1.8
v -1.8 0 -2
v -1.800003 0.6607236 -2
v -0.2000008 0.6607236 -2
v -2.000001 0.6607236 -1.8
v -2.000001 0.6607236 -0.2000003
v -1.800003 0.6607236 -2.386006E-07
v -3.069641E-06 0.6607236 -1.8
v -3.069641E-06 0.6607236 -0.2
v -0.2000008 0.6607236 -5.801336E-08
vt 0.2685474 0.6106649
vt 0.08104737 0.6106649
vt 0.2685474 0.6509481
vt 0.08104737 0.6509481
vt 0.1028374 0.6171718
vt 0.24356 0.6171718
vt 0.1028374 0.643539
vt 0.24356 0.643539
vt 0.1033797 0.619772
vt 0.2426374 0.619772
vt 0.1033797 0.6622524
vt 0.2426374 0.6622524
vt 0.06090671 0.9014891
vt 0.06094271 0.6617573
vt 0.04771835 0.9014872
vt 0.04775435 0.6617554
vt 0.2602195 0.6241814
vt 0.2602195 0.6241814
vt 0.2602195 0.6241814
vt 0.2602195 0.6241814
vt 0.2602195 0.6241814
vt 0.2602195 0.6241814
vt 0.2602195 0.6241814
vt 0.2602195 0.6241814
vt 0.2602195 0.6241814
vt 0.2602195 0.6241814
vt 0.2602195 0.6241814
vt 0.2602195 0.6241814
vt 0.2602195 0.6241814
vt 0.2602195 0.6241814
vt 0.2602195 0.6241814
vt 0.2602195 0.6241814
vt 0.2602195 0.6241814
vt 0.2602195 0.6241814
vt 0.2602195 0.6241814
vt 0.2602195 0.6241814
vt 0.2602195 0.6241814
vt 0.2602195 0.6241814
vt 0.2602195 0.6241814
vt 0.2602195 0.6241814
vt 0.06761789 0.6199964
vt 0.04057813 0.6500853
vt 0.2807102 0.6228194
vt 0.03735185 0.8936193
vt 0.06358516 0.9244139
vt 0.3069434 0.653614
vt 0.3037171 0.897148
vt 0.2766773 0.9272369
vt 1.800003 -3.066546
vt 0.2000003 -3.066546
vt 2 -2.866546
vt 2 -1.266546
vt 1.800003 -1.066546
vt 2.592804E-06 -2.866546
vt 2.592804E-06 -1.266546
vt 0.2000003 -1.066546
vn -8.940698E-08 6.07393E-08 1
vn -1.011369E-07 8.914435E-08 1
vn -1.011369E-07 8.914435E-08 1
vn -1.128669E-07 1.175494E-07 1
vn -1 -1.082534E-06 0
vn -1 -1.082534E-06 0
vn -1 -1.082534E-06 0
vn -1 -1.082534E-06 0
vn 1.490116E-07 6.990107E-13 -1
vn 7.450581E-08 -1.80422E-07 -1
vn 7.450581E-08 -1.80422E-07 -1
vn 0 -3.608447E-07 -1
vn 1 4.645878E-06 0
vn 1 4.645878E-06 0
vn 1 4.645878E-06 0
vn 1 4.645878E-06 0
vn 0.707109 1.881785E-06 -0.7071046
vn 0.707109 1.881785E-06 -0.7071046
vn 0.7071069 6.059949E-07 -0.7071067
vn 0.707109 1.881785E-06 -0.7071046
vn 0.7071111 3.157575E-06 -0.7071025
vn 0.707109 1.881785E-06 -0.7071046
vn -0.7071087 -2.105044E-06 -0.7071048
vn -0.7071087 -2.105044E-06 -0.7071048
vn -0.7071068 -8.93045E-07 -0.7071068
vn -0.7071087 -2.105044E-06 -0.7071048
vn -0.7071108 -3.317043E-06 -0.7071028
vn -0.7071087 -2.105044E-06 -0.7071048
vn 0.7071087 2.113012E-06 0.7071048
vn 0.7071087 2.113012E-06 0.7071048
vn 0.7071107 9.089968E-07 0.7071028
vn 0.7071087 2.113012E-06 0.7071048
vn 0.7071068 3.317026E-06 0.7071068
vn 0.7071087 2.113012E-06 0.7071048
vn -0.7071089 -1.953538E-06 0.7071047
vn -0.7071089 -1.953538E-06 0.7071047
vn -0.7071067 -3.237288E-06 0.7071069
vn -0.7071089 -1.953538E-06 0.7071047
vn -0.7071109 -6.697888E-07 0.7071026
vn -0.7071089 -1.953538E-06 0.7071047
vn 0 -1 0
vn 0 -1 0
vn 0 -1 0
vn 0 -1 0
vn 0 -1 0
vn 0 -1 0
vn 0 -1 0
vn 0 -1 0
vn 0 1 0
vn 0 1 0
vn 0 1 0
vn 0 1 0
vn 0 1 0
vn 0 1 0
vn 0 1 0
vn 0 1 0
g pb_Mesh3041592_0
f 3/3/3 2/2/2 1/1/1
f 3/3/3 4/4/4 2/2/2
f 7/7/7 6/6/6 5/5/5
f 7/7/7 8/8/8 6/6/6
f 11/11/11 10/10/10 9/9/9
f 11/11/11 12/12/12 10/10/10
f 15/15/15 14/14/14 13/13/13
f 15/15/15 16/16/16 14/14/14
f 19/19/19 18/18/18 17/17/17
f 22/22/22 21/21/21 20/20/20
f 25/25/25 24/24/24 23/23/23
f 28/28/28 27/27/27 26/26/26
f 31/31/31 30/30/30 29/29/29
f 34/34/34 33/33/33 32/32/32
f 37/37/37 36/36/36 35/35/35
f 40/40/40 39/39/39 38/38/38
f 43/43/43 42/42/42 41/41/41
f 44/44/44 42/42/42 43/43/43
f 45/45/45 44/44/44 43/43/43
f 45/45/45 43/43/43 46/46/46
f 45/45/45 46/46/46 47/47/47
f 48/48/48 45/45/45 47/47/47
f 51/51/51 50/50/50 49/49/49
f 51/51/51 52/52/52 50/50/50
f 52/52/52 53/53/53 50/50/50
f 53/53/53 54/54/54 50/50/50
f 53/53/53 55/55/55 54/54/54
f 56/56/56 55/55/55 53/53/53
