g pb_Mesh1466836
v -7.737172E-11 0.68 -6.343123E-08
v 14.68471 0.68 0.06196016
v 0.09294035 0.680001 10.22353
v 14.71569 0.680001 10.34746
v 15.15633 0.0003907123 11.21536
v 15.40575 -0.000587558 -0.8593543
v -0.7042317 0.0003906927 11.05137
v -0.8100438 -9.930804E-05 -1.122351
v -0.8100438 -9.930804E-05 -1.122351
v 15.40575 -0.000587558 -0.8593543
v -7.737172E-11 0.68 -6.343123E-08
v 14.68471 0.68 0.06196016
v -0.7042317 0.0003906927 11.05137
v -0.8100438 -9.930804E-05 -1.122351
v 0.09294035 0.680001 10.22353
v -7.737172E-11 0.68 -6.343123E-08
v 15.40575 -0.000587558 -0.8593543
v 15.15633 0.0003907123 11.21536
v 14.68471 0.68 0.06196016
v 14.71569 0.680001 10.34746
v 15.15633 0.0003907123 11.21536
v -0.7042317 0.0003906927 11.05137
v 14.71569 0.680001 10.34746
v 0.09294035 0.680001 10.22353
vt 3.450247E-10 3.133024E-12
vt -14.68471 0.06196023
vt -0.09294035 10.22353
vt -14.71569 10.34746
vt 15.15633 11.21536
vt 15.40575 -0.8593543
vt -0.7042317 11.05137
vt -0.8100438 -1.122351
vt 0.8100026 -0.9610969
vt -15.40499 -0.6526021
vt 0.006782429 0.3554193
vt -14.6772 0.4848002
vt 0.53767 11.04866
vt 0.6188101 -1.12525
vt -0.5098661 10.22081
vt -0.4388737 -0.002897821
vt -11.06194 -1.012787
vt -10.88217 11.06317
vt -10.07051 -0.09137817
vt -10.09276 10.19275
vt -15.15583 8.888749
vt 0.7042052 8.680044
vt -14.72074 7.784218
vt -0.09847174 7.613232
vn 3.936074E-10 1 -9.328583E-08
vn 5.896956E-10 1 -9.300425E-08
vn 5.896956E-10 1 -9.300425E-08
vn 7.857838E-10 1 -9.272267E-08
vn -8.362927E-07 -1 8.10008E-05
vn -1.580148E-05 -1 6.075946E-05
vn -1.580148E-05 -1 6.075946E-05
vn -3.076668E-05 -1 4.051812E-05
vn 0.008503129 0.8524734 -0.5227015
vn 0.005502407 0.8288709 -0.5578033
vn 0.005502407 0.8288709 -0.5578033
vn 0.002501685 0.8052685 -0.592905
vn -0.6453925 0.7638308 0.005578909
vn -0.6465797 0.7628233 0.005733786
vn -0.6465797 0.7628233 0.005733786
vn -0.6477669 0.7618158 0.005888662
vn 0.6959585 0.7179393 0.01431772
vn 0.7682487 0.6298423 0.005892935
vn 0.7682487 0.6298423 0.005892935
vn 0.8405389 0.5417453 -0.002531848
vn -0.006395319 0.7857437 0.6185192
vn -0.005873187 0.7805808 0.6249725
vn -0.005873187 0.7805808 0.6249725
vn -0.005351054 0.7754179 0.6314257
g pb_Mesh1466836_0
f 3/3/3 2/2/2 1/1/1
f 4/4/4 2/2/2 3/3/3
f 7/7/7 6/6/6 5/5/5
f 8/8/8 6/6/6 7/7/7
f 11/11/11 10/10/10 9/9/9
f 11/11/11 12/12/12 10/10/10
f 15/15/15 14/14/14 13/13/13
f 15/15/15 16/16/16 14/14/14
f 19/19/19 18/18/18 17/17/17
f 19/19/19 20/20/20 18/18/18
f 23/23/23 22/22/22 21/21/21
f 23/23/23 24/24/24 22/22/22
